  0
SECTION
  2
HEADER
  9
$ACADVER
  1
AC1024
  9
$ACADMAINTVER
 70
6
  9
$DWGCODEPAGE
  3
ANSI_1252
  9
$LASTSAVEDBY
  1
ezdxf
  9
$INSBASE
 10
0.0
 20
0.0
 30
0.0
  9
$EXTMIN
 10
1e+20
 20
1e+20
 30
1e+20
  9
$EXTMAX
 10
-1e+20
 20
-1e+20
 30
-1e+20
  9
$LIMMIN
 10
0.0
 20
0.0
  9
$LIMMAX
 10
420.0
 20
297.0
  9
$ORTHOMODE
 70
0
  9
$REGENMODE
 70
1
  9
$FILLMODE
 70
1
  9
$QTEXTMODE
 70
0
  9
$MIRRTEXT
 70
1
  9
$LTSCALE
 40
1.0
  9
$ATTMODE
 70
1
  9
$TEXTSIZE
 40
2.5
  9
$TRACEWID
 40
1.0
  9
$TEXTSTYLE
  7
Standard
  9
$CLAYER
  8
0
  9
$CELTYPE
  6
ByLayer
  9
$CECOLOR
 62
256
  9
$CELTSCALE
 40
1.0
  9
$DISPSILH
 70
0
  9
$DIMSCALE
 40
1.0
  9
$DIMASZ
 40
2.5
  9
$DIMEXO
 40
0.625
  9
$DIMDLI
 40
3.75
  9
$DIMRND
 40
0.0
  9
$DIMDLE
 40
0.0
  9
$DIMEXE
 40
1.25
  9
$DIMTP
 40
0.0
  9
$DIMTM
 40
0.0
  9
$DIMTXT
 40
2.5
  9
$DIMCEN
 40
2.5
  9
$DIMTSZ
 40
0.0
  9
$DIMTOL
 70
0
  9
$DIMLIM
 70
0
  9
$DIMTIH
 70
0
  9
$DIMTOH
 70
0
  9
$DIMSE1
 70
0
  9
$DIMSE2
 70
0
  9
$DIMTAD
 70
1
  9
$DIMZIN
 70
8
  9
$DIMBLK
  1

  9
$DIMASO
 70
1
  9
$DIMSHO
 70
1
  9
$DIMPOST
  1

  9
$DIMAPOST
  1

  9
$DIMALT
 70
0
  9
$DIMALTD
 70
3
  9
$DIMALTF
 40
0.03937007874
  9
$DIMLFAC
 40
1.0
  9
$DIMTOFL
 70
1
  9
$DIMTVP
 40
0.0
  9
$DIMTIX
 70
0
  9
$DIMSOXD
 70
0
  9
$DIMSAH
 70
0
  9
$DIMBLK1
  1

  9
$DIMBLK2
  1

  9
$DIMSTYLE
  2
ISO-25
  9
$DIMCLRD
 70
0
  9
$DIMCLRE
 70
0
  9
$DIMCLRT
 70
0
  9
$DIMTFAC
 40
1.0
  9
$DIMGAP
 40
0.625
  9
$DIMJUST
 70
0
  9
$DIMSD1
 70
0
  9
$DIMSD2
 70
0
  9
$DIMTOLJ
 70
0
  9
$DIMTZIN
 70
8
  9
$DIMALTZ
 70
0
  9
$DIMALTTZ
 70
0
  9
$DIMUPT
 70
0
  9
$DIMDEC
 70
2
  9
$DIMTDEC
 70
2
  9
$DIMALTU
 70
2
  9
$DIMALTTD
 70
3
  9
$DIMTXSTY
  7
Standard
  9
$DIMAUNIT
 70
0
  9
$DIMADEC
 70
0
  9
$DIMALTRND
 40
0.0
  9
$DIMAZIN
 70
0
  9
$DIMDSEP
 70
44
  9
$DIMATFIT
 70
3
  9
$DIMFRAC
 70
0
  9
$DIMLDRBLK
  1

  9
$DIMLUNIT
 70
2
  9
$DIMLWD
 70
-2
  9
$DIMLWE
 70
-2
  9
$DIMTMOVE
 70
0
  9
$DIMFXL
 40
1.0
  9
$DIMFXLON
 70
0
  9
$DIMJOGANG
 40
0.785398163397
  9
$DIMTFILL
 70
0
  9
$DIMTFILLCLR
 70
0
  9
$DIMARCSYM
 70
0
  9
$DIMLTYPE
  6

  9
$DIMLTEX1
  6

  9
$DIMLTEX2
  6

  9
$DIMTXTDIRECTION
 70
0
  9
$LUNITS
 70
2
  9
$LUPREC
 70
4
  9
$SKETCHINC
 40
1.0
  9
$FILLETRAD
 40
10.0
  9
$AUNITS
 70
0
  9
$AUPREC
 70
2
  9
$MENU
  1
.
  9
$ELEVATION
 40
0.0
  9
$PELEVATION
 40
0.0
  9
$THICKNESS
 40
0.0
  9
$LIMCHECK
 70
0
  9
$CHAMFERA
 40
0.0
  9
$CHAMFERB
 40
0.0
  9
$CHAMFERC
 40
0.0
  9
$CHAMFERD
 40
0.0
  9
$SKPOLY
 70
0
  9
$TDCREATE
 40
2461183.591724537
  9
$TDUCREATE
 40
2458532.153996898
  9
$TDUPDATE
 40
2461183.591724537
  9
$TDUUPDATE
 40
2458532.1544311
  9
$TDINDWG
 40
0.0
  9
$TDUSRTIMER
 40
0.0
  9
$USRTIMER
 70
1
  9
$ANGBASE
 50
0.0
  9
$ANGDIR
 70
0
  9
$PDMODE
 70
0
  9
$PDSIZE
 40
0.0
  9
$PLINEWID
 40
0.0
  9
$SPLFRAME
 70
0
  9
$SPLINETYPE
 70
6
  9
$SPLINESEGS
 70
8
  9
$HANDSEED
  5
35
  9
$SURFTAB1
 70
6
  9
$SURFTAB2
 70
6
  9
$SURFTYPE
 70
6
  9
$SURFU
 70
6
  9
$SURFV
 70
6
  9
$UCSBASE
  2

  9
$UCSNAME
  2

  9
$UCSORG
 10
0.0
 20
0.0
 30
0.0
  9
$UCSXDIR
 10
1.0
 20
0.0
 30
0.0
  9
$UCSYDIR
 10
0.0
 20
1.0
 30
0.0
  9
$UCSORTHOREF
  2

  9
$UCSORTHOVIEW
 70
0
  9
$UCSORGTOP
 10
0.0
 20
0.0
 30
0.0
  9
$UCSORGBOTTOM
 10
0.0
 20
0.0
 30
0.0
  9
$UCSORGLEFT
 10
0.0
 20
0.0
 30
0.0
  9
$UCSORGRIGHT
 10
0.0
 20
0.0
 30
0.0
  9
$UCSORGFRONT
 10
0.0
 20
0.0
 30
0.0
  9
$UCSORGBACK
 10
0.0
 20
0.0
 30
0.0
  9
$PUCSBASE
  2

  9
$PUCSNAME
  2

  9
$PUCSORG
 10
0.0
 20
0.0
 30
0.0
  9
$PUCSXDIR
 10
1.0
 20
0.0
 30
0.0
  9
$PUCSYDIR
 10
0.0
 20
1.0
 30
0.0
  9
$PUCSORTHOREF
  2

  9
$PUCSORTHOVIEW
 70
0
  9
$PUCSORGTOP
 10
0.0
 20
0.0
 30
0.0
  9
$PUCSORGBOTTOM
 10
0.0
 20
0.0
 30
0.0
  9
$PUCSORGLEFT
 10
0.0
 20
0.0
 30
0.0
  9
$PUCSORGRIGHT
 10
0.0
 20
0.0
 30
0.0
  9
$PUCSORGFRONT
 10
0.0
 20
0.0
 30
0.0
  9
$PUCSORGBACK
 10
0.0
 20
0.0
 30
0.0
  9
$USERI1
 70
0
  9
$USERI2
 70
0
  9
$USERI3
 70
0
  9
$USERI4
 70
0
  9
$USERI5
 70
0
  9
$USERR1
 40
0.0
  9
$USERR2
 40
0.0
  9
$USERR3
 40
0.0
  9
$USERR4
 40
0.0
  9
$USERR5
 40
0.0
  9
$WORLDVIEW
 70
1
  9
$SHADEDGE
 70
3
  9
$SHADEDIF
 70
70
  9
$TILEMODE
 70
1
  9
$MAXACTVP
 70
64
  9
$PINSBASE
 10
0.0
 20
0.0
 30
0.0
  9
$PLIMCHECK
 70
0
  9
$PEXTMIN
 10
1e+20
 20
1e+20
 30
1e+20
  9
$PEXTMAX
 10
-1e+20
 20
-1e+20
 30
-1e+20
  9
$PLIMMIN
 10
0.0
 20
0.0
  9
$PLIMMAX
 10
420.0
 20
297.0
  9
$UNITMODE
 70
0
  9
$VISRETAIN
 70
1
  9
$PLINEGEN
 70
0
  9
$PSLTSCALE
 70
1
  9
$TREEDEPTH
 70
3020
  9
$CMLSTYLE
  2
Standard
  9
$CMLJUST
 70
0
  9
$CMLSCALE
 40
20.0
  9
$PROXYGRAPHICS
 70
1
  9
$MEASUREMENT
 70
1
  9
$CELWEIGHT
370
-1
  9
$ENDCAPS
280
0
  9
$JOINSTYLE
280
0
  9
$LWDISPLAY
290
0
  9
$INSUNITS
 70
6
  9
$HYPERLINKBASE
  1

  9
$STYLESHEET
  1

  9
$XEDIT
290
1
  9
$CEPSNTYPE
380
0
  9
$PSTYLEMODE
290
1
  9
$FINGERPRINTGUID
  2
{780A9E3F-3106-4F14-93F0-53E82204AA3D}
  9
$VERSIONGUID
  2
{8712765B-50A1-4A63-8C69-6953F4E013CF}
  9
$EXTNAMES
290
1
  9
$PSVPSCALE
 40
0.0
  9
$OLESTARTUP
290
0
  9
$SORTENTS
280
127
  9
$INDEXCTL
280
0
  9
$HIDETEXT
280
1
  9
$XCLIPFRAME
280
1
  9
$HALOGAP
280
0
  9
$OBSCOLOR
 70
257
  9
$OBSLTYPE
280
0
  9
$INTERSECTIONDISPLAY
280
0
  9
$INTERSECTIONCOLOR
 70
257
  9
$DIMASSOC
280
2
  9
$PROJECTNAME
  1

  9
$CAMERADISPLAY
290
0
  9
$LENSLENGTH
 40
50.0
  9
$CAMERAHEIGHT
 40
0.0
  9
$STEPSPERSEC
 40
24.0
  9
$STEPSIZE
 40
100.0
  9
$3DDWFPREC
 40
2.0
  9
$PSOLWIDTH
 40
0.005
  9
$PSOLHEIGHT
 40
0.08
  9
$LOFTANG1
 40
1.570796326795
  9
$LOFTANG2
 40
1.570796326795
  9
$LOFTMAG1
 40
0.0
  9
$LOFTMAG2
 40
0.0
  9
$LOFTPARAM
 70
7
  9
$LOFTNORMALS
280
1
  9
$LATITUDE
 40
37.795
  9
$LONGITUDE
 40
-122.394
  9
$NORTHDIRECTION
 40
0.0
  9
$TIMEZONE
 70
-8000
  9
$LIGHTGLYPHDISPLAY
280
1
  9
$TILEMODELIGHTSYNCH
280
1
  9
$CMATERIAL
347
20
  9
$SOLIDHIST
280
0
  9
$SHOWHIST
280
1
  9
$DWFFRAME
280
2
  9
$DGNFRAME
280
2
  9
$REALWORLDSCALE
290
1
  9
$INTERFERECOLOR
 62
256
  9
$CSHADOW
280
0
  9
$SHADOWPLANELOCATION
 40
0.0
  0
ENDSEC
  0
SECTION
  2
CLASSES
  0
CLASS
  1
ACDBDICTIONARYWDFLT
  2
AcDbDictionaryWithDefault
  3
ObjectDBX Classes
 90
0
 91
0
280
0
281
0
  0
CLASS
  1
SUN
  2
AcDbSun
  3
SCENEOE
 90
1153
 91
0
280
0
281
0
  0
CLASS
  1
VISUALSTYLE
  2
AcDbVisualStyle
  3
ObjectDBX Classes
 90
4095
 91
0
280
0
281
0
  0
CLASS
  1
MATERIAL
  2
AcDbMaterial
  3
ObjectDBX Classes
 90
1153
 91
0
280
0
281
0
  0
CLASS
  1
SCALE
  2
AcDbScale
  3
ObjectDBX Classes
 90
1153
 91
0
280
0
281
0
  0
CLASS
  1
TABLESTYLE
  2
AcDbTableStyle
  3
ObjectDBX Classes
 90
4095
 91
0
280
0
281
0
  0
CLASS
  1
MLEADERSTYLE
  2
AcDbMLeaderStyle
  3
ACDB_MLEADERSTYLE_CLASS
 90
4095
 91
0
280
0
281
0
  0
CLASS
  1
DICTIONARYVAR
  2
AcDbDictionaryVar
  3
ObjectDBX Classes
 90
0
 91
0
280
0
281
0
  0
CLASS
  1
CELLSTYLEMAP
  2
AcDbCellStyleMap
  3
ObjectDBX Classes
 90
1152
 91
0
280
0
281
0
  0
CLASS
  1
MENTALRAYRENDERSETTINGS
  2
AcDbMentalRayRenderSettings
  3
SCENEOE
 90
1024
 91
0
280
0
281
0
  0
CLASS
  1
ACDBDETAILVIEWSTYLE
  2
AcDbDetailViewStyle
  3
ObjectDBX Classes
 90
1025
 91
0
280
0
281
0
  0
CLASS
  1
ACDBSECTIONVIEWSTYLE
  2
AcDbSectionViewStyle
  3
ObjectDBX Classes
 90
1025
 91
0
280
0
281
0
  0
CLASS
  1
RASTERVARIABLES
  2
AcDbRasterVariables
  3
ISM
 90
0
 91
0
280
0
281
0
  0
CLASS
  1
LAYOUT
  2
AcDbLayout
  3
ObjectDBX Classes
 90
0
 91
0
280
0
281
0
  0
CLASS
  1
ACDBPLACEHOLDER
  2
AcDbPlaceHolder
  3
ObjectDBX Classes
 90
0
 91
0
280
0
281
0
  0
ENDSEC
  0
SECTION
  2
TABLES
  0
TABLE
  2
VPORT
  5
8
330
0
100
AcDbSymbolTable
 70
1
  0
VPORT
  5
23
330
8
100
AcDbSymbolTableRecord
100
AcDbViewportTableRecord
  2
*Active
 70
0
 10
0.0
 20
0.0
 11
1.0
 21
1.0
 12
0.0
 22
0.0
 13
0.0
 23
0.0
 14
0.5
 24
0.5
 15
0.5
 25
0.5
 16
0.0
 26
0.0
 36
1.0
 17
0.0
 27
0.0
 37
0.0
 40
1000.0
 41
1.34
 42
50.0
 43
0.0
 44
0.0
 50
0.0
 51
0.0
 71
0
 72
1000
 73
1
 74
3
 75
0
 76
0
 77
0
 78
0
281
0
 65
0
146
0.0
  0
ENDTAB
  0
TABLE
  2
LTYPE
  5
2
330
0
100
AcDbSymbolTable
 70
3
  0
LTYPE
  5
24
330
2
100
AcDbSymbolTableRecord
100
AcDbLinetypeTableRecord
  2
ByBlock
 70
0
  3

 72
65
 73
0
 40
0.0
  0
LTYPE
  5
25
330
2
100
AcDbSymbolTableRecord
100
AcDbLinetypeTableRecord
  2
ByLayer
 70
0
  3

 72
65
 73
0
 40
0.0
  0
LTYPE
  5
26
330
2
100
AcDbSymbolTableRecord
100
AcDbLinetypeTableRecord
  2
Continuous
 70
0
  3

 72
65
 73
0
 40
0.0
  0
ENDTAB
  0
TABLE
  2
LAYER
  5
1
330
0
100
AcDbSymbolTable
 70
2
  0
LAYER
  5
27
330
1
100
AcDbSymbolTableRecord
100
AcDbLayerTableRecord
  2
0
 70
0
 62
7
  6
Continuous
370
-3
390
13
347
21
  0
LAYER
  5
28
330
1
100
AcDbSymbolTableRecord
100
AcDbLayerTableRecord
  2
Defpoints
 70
0
 62
7
  6
Continuous
290
0
370
-3
390
13
347
21
  0
ENDTAB
  0
TABLE
  2
STYLE
  5
5
330
0
100
AcDbSymbolTable
 70
1
  0
STYLE
  5
29
330
5
100
AcDbSymbolTableRecord
100
AcDbTextStyleTableRecord
  2
Standard
 70
0
 40
0.0
 41
1.0
 50
0.0
 71
0
 42
2.5
  3
txt
  4

  0
ENDTAB
  0
TABLE
  2
VIEW
  5
7
330
0
100
AcDbSymbolTable
 70
0
  0
ENDTAB
  0
TABLE
  2
UCS
  5
6
330
0
100
AcDbSymbolTable
 70
0
  0
ENDTAB
  0
TABLE
  2
APPID
  5
3
330
0
100
AcDbSymbolTable
 70
3
  0
APPID
  5
2A
330
3
100
AcDbSymbolTableRecord
100
AcDbRegAppTableRecord
  2
ACAD
 70
0
  0
APPID
  5
32
330
3
100
AcDbSymbolTableRecord
100
AcDbRegAppTableRecord
  2
HATCHBACKGROUNDCOLOR
 70
0
  0
APPID
  5
33
330
3
100
AcDbSymbolTableRecord
100
AcDbRegAppTableRecord
  2
EZDXF
 70
0
  0
ENDTAB
  0
TABLE
  2
DIMSTYLE
  5
4
330
0
100
AcDbSymbolTable
 70
1
100
AcDbDimStyleTable
  0
DIMSTYLE
105
2B
330
4
100
AcDbSymbolTableRecord
100
AcDbDimStyleTableRecord
  2
Standard
 70
0
 40
1.0
 41
2.5
 42
0.625
 43
3.75
 44
1.25
 45
0.0
 46
0.0
 47
0.0
 48
0.0
 49
2.5
140
2.5
141
2.5
142
0.0
143
0.03937007874
144
1.0
145
0.0
146
1.0
147
0.625
148
0.0
 69
0
 70
0
 71
0
 72
0
 73
0
 74
0
 75
0
 76
0
 77
1
 78
8
 79
3
170
0
171
3
172
1
173
0
174
0
175
0
176
0
177
0
178
0
179
2
271
2
272
2
273
2
274
3
275
0
276
0
277
2
278
44
279
0
280
0
281
0
282
0
283
0
284
8
285
0
286
0
288
0
289
3
290
0
371
-2
372
-2
  0
ENDTAB
  0
TABLE
  2
BLOCK_RECORD
  5
9
330
0
100
AcDbSymbolTable
 70
2
  0
BLOCK_RECORD
  5
17
330
9
100
AcDbSymbolTableRecord
100
AcDbBlockTableRecord
  2
*Model_Space
340
1A
 70
0
280
1
281
0
  0
BLOCK_RECORD
  5
1B
330
9
100
AcDbSymbolTableRecord
100
AcDbBlockTableRecord
  2
*Paper_Space
340
1E
 70
0
280
1
281
0
  0
ENDTAB
  0
ENDSEC
  0
SECTION
  2
BLOCKS
  0
BLOCK
  5
18
330
17
100
AcDbEntity
  8
0
100
AcDbBlockBegin
  2
*Model_Space
 70
0
 10
0.0
 20
0.0
 30
0.0
  3
*Model_Space
  1

  0
ENDBLK
  5
19
330
17
100
AcDbEntity
  8
0
100
AcDbBlockEnd
  0
BLOCK
  5
1C
330
1B
100
AcDbEntity
  8
0
100
AcDbBlockBegin
  2
*Paper_Space
 70
0
 10
0.0
 20
0.0
 30
0.0
  3
*Paper_Space
  1

  0
ENDBLK
  5
1D
330
1B
100
AcDbEntity
  8
0
100
AcDbBlockEnd
  0
ENDSEC
  0
SECTION
  2
ENTITIES
  0
LWPOLYLINE
  5
2F
330
17
100
AcDbEntity
  8
CONTOUR
 62
1
370
35
100
AcDbPolyline
 90
548
 70
0
 10
43.384947491248546
 20
715.2380952380952
 10
44.88098016336056
 20
713.807619047619
 10
44.88098016336056
 20
446.30857142857144
 10
46.377012835472584
 20
446.30857142857144
 10
46.377012835472584
 20
713.807619047619
 10
47.8730455075846
 20
715.2380952380952
 10
354.55974329054845
 20
715.2380952380952
 10
356.05577596266045
 20
713.807619047619
 10
354.55974329054845
 20
712.3771428571429
 10
350.07164527421236
 20
712.3771428571429
 10
348.57561260210036
 20
710.9466666666666
 10
345.5835472578763
 20
710.9466666666666
 10
344.0875145857643
 20
709.5161904761904
 10
339.59941656942823
 20
709.5161904761904
 10
338.10338389731623
 20
708.0857142857143
 10
333.6152858809802
 20
708.0857142857143
 10
332.11925320886814
 20
706.6552380952381
 10
327.6311551925321
 20
706.6552380952381
 10
326.1351225204201
 20
705.2247619047619
 10
315.6628938156359
 20
703.7942857142857
 10
314.16686114352393
 20
702.3638095238096
 10
311.1747957992999
 20
702.3638095238096
 10
309.6787631271879
 20
700.9333333333333
 10
305.1906651108518
 20
700.9333333333333
 10
303.6946324387398
 20
699.5028571428571
 10
299.20653442240376
 20
699.5028571428571
 10
297.7105017502917
 20
698.072380952381
 10
287.2382730455076
 20
696.6419047619047
 10
285.7422403733956
 20
695.2114285714285
 10
282.75017502917154
 20
695.2114285714285
 10
281.25414235705955
 20
693.7809523809524
 10
276.76604434072345
 20
693.7809523809524
 10
275.27001166861146
 20
692.3504761904762
 10
270.78191365227536
 20
692.3504761904762
 10
269.28588098016337
 20
690.92
 10
258.81365227537924
 20
689.4895238095238
 10
257.31761960326725
 20
688.0590476190476
 10
254.32555425904317
 20
688.0590476190476
 10
252.82952158693118
 20
686.6285714285714
 10
248.3414235705951
 20
686.6285714285714
 10
246.8453908984831
 20
685.1980952380952
 10
242.35729288214702
 20
685.1980952380952
 10
240.86126021003503
 20
683.7676190476191
 10
236.37316219369896
 20
683.7676190476191
 10
234.87712952158694
 20
682.3371428571428
 10
224.4049008168028
 20
680.9066666666666
 10
222.90886814469079
 20
679.4761904761905
 10
219.91680280046674
 20
679.4761904761905
 10
218.42077012835475
 20
678.0457142857143
 10
215.4287047841307
 20
678.0457142857143
 10
213.93267211201868
 20
676.615238095238
 10
212.43663943990666
 20
676.615238095238
 10
209.4445740956826
 20
673.7542857142857
 10
209.4445740956826
 20
670.8933333333333
 10
207.94854142357062
 20
669.4628571428572
 10
207.94854142357062
 20
646.5752380952381
 10
206.4525087514586
 20
645.1447619047619
 10
206.4525087514586
 20
622.2571428571429
 10
204.95647607934657
 20
620.8266666666667
 10
204.95647607934657
 20
609.3828571428571
 10
198.97234539089848
 20
603.6609523809524
 10
197.47631271878646
 20
603.6609523809524
 10
188.50011668611435
 20
596.5085714285714
 10
187.00408401400233
 20
596.5085714285714
 10
182.5159859976663
 20
592.2171428571429
 10
181.01995332555427
 20
592.2171428571429
 10
178.02788798133022
 20
589.3561904761905
 10
176.5318553092182
 20
589.3561904761905
 10
172.04375729288216
 20
585.0647619047619
 10
172.04375729288216
 20
583.6342857142857
 10
170.54772462077014
 20
582.2038095238095
 10
170.54772462077014
 20
579.3428571428572
 10
169.05169194865812
 20
577.912380952381
 10
169.05169194865812
 20
573.6209523809524
 10
167.5556592765461
 20
572.1904761904761
 10
167.5556592765461
 20
569.3295238095238
 10
166.05962660443407
 20
567.8990476190476
 10
166.05962660443407
 20
563.6076190476191
 10
164.56359393232205
 20
562.1771428571428
 10
164.56359393232205
 20
557.8857142857142
 10
163.06756126021006
 20
556.4552380952381
 10
163.06756126021006
 20
552.1638095238095
 10
161.57152858809803
 20
550.7333333333333
 10
161.57152858809803
 20
546.4419047619048
 10
160.075495915986
 20
545.0114285714286
 10
160.075495915986
 20
542.1504761904762
 10
158.579463243874
 20
540.72
 10
158.579463243874
 20
536.4285714285714
 10
157.08343057176197
 20
534.9980952380952
 10
157.08343057176197
 20
530.7066666666667
 10
155.58739789964994
 20
529.2761904761904
 10
154.09136522753792
 20
519.2628571428571
 10
152.5953325554259
 20
517.832380952381
 10
152.5953325554259
 20
514.9714285714285
 10
151.0992998833139
 20
513.5409523809524
 10
151.0992998833139
 20
509.2495238095238
 10
149.60326721120188
 20
507.81904761904764
 10
148.10723453908986
 20
497.80571428571426
 10
146.61120186697784
 20
496.3752380952381
 10
146.61120186697784
 20
493.51428571428573
 10
145.1151691948658
 20
492.0838095238095
 10
145.1151691948658
 20
487.79238095238094
 10
143.6191365227538
 20
486.3619047619048
 10
143.6191365227538
 20
482.0704761904762
 10
142.12310385064177
 20
480.64
 10
140.62707117852977
 20
470.62666666666667
 10
139.13103850641775
 20
469.19619047619045
 10
139.13103850641775
 20
466.3352380952381
 10
137.63500583430573
 20
464.9047619047619
 10
137.63500583430573
 20
460.61333333333334
 10
136.1389731621937
 20
459.18285714285713
 10
136.1389731621937
 20
454.89142857142855
 10
134.64294049008168
 20
453.4609523809524
 10
133.14690781796966
 20
443.447619047619
 10
131.65087514585764
 20
442.01714285714286
 10
131.65087514585764
 20
439.1561904761905
 10
130.15484247374562
 20
437.7257142857143
 10
130.15484247374562
 20
433.4342857142857
 10
128.65880980163362
 20
432.00380952380954
 10
128.65880980163362
 20
427.71238095238095
 10
127.16277712952159
 20
426.28190476190474
 10
125.66674445740958
 20
416.2685714285714
 10
124.17071178529756
 20
414.8380952380952
 10
124.17071178529756
 20
411.97714285714284
 10
122.67467911318553
 20
410.5466666666667
 10
122.67467911318553
 20
406.2552380952381
 10
121.17864644107351
 20
404.8247619047619
 10
119.6826137689615
 20
394.81142857142856
 10
118.18658109684948
 20
393.38095238095235
 10
118.18658109684948
 20
390.52
 10
116.69054842473746
 20
389.0895238095238
 10
116.69054842473746
 20
384.79809523809524
 10
115.19451575262545
 20
383.36761904761903
 10
115.19451575262545
 20
379.07619047619045
 10
113.69848308051343
 20
377.6457142857143
 10
112.2024504084014
 20
367.63238095238097
 10
110.70641773628938
 20
366.20190476190476
 10
110.70641773628938
 20
363.3409523809524
 10
109.21038506417737
 20
361.9104761904762
 10
109.21038506417737
 20
357.6190476190476
 10
107.71435239206535
 20
356.18857142857144
 10
107.71435239206535
 20
351.89714285714285
 10
106.21831971995333
 20
350.46666666666664
 10
104.7222870478413
 20
340.4533333333333
 10
103.2262543757293
 20
339.02285714285716
 10
103.2262543757293
 20
336.16190476190474
 10
101.73022170361727
 20
334.7314285714286
 10
101.73022170361727
 20
330.44
 10
100.23418903150525
 20
329.0095238095238
 10
98.73815635939323
 20
318.99619047619046
 10
97.24212368728122
 20
317.5657142857143
 10
97.24212368728122
 20
314.7047619047619
 10
95.7460910151692
 20
313.2742857142857
 10
95.7460910151692
 20
308.98285714285714
 10
94.25005834305718
 20
307.55238095238093
 10
94.25005834305718
 20
303.2609523809524
 10
92.75402567094517
 20
301.8304761904762
 10
91.25799299883315
 20
291.81714285714287
 10
89.76196032672112
 20
290.38666666666666
 10
89.76196032672112
 20
287.5257142857143
 10
88.2659276546091
 20
286.0952380952381
 10
88.2659276546091
 20
281.80380952380955
 10
86.76989498249709
 20
280.37333333333333
 10
86.76989498249709
 20
24.31809523809524
 10
85.27386231038507
 20
22.887619047619047
 10
47.8730455075846
 20
22.887619047619047
 10
46.377012835472584
 20
24.31809523809524
 10
46.377012835472584
 20
294.67809523809524
 10
44.88098016336056
 20
294.67809523809524
 10
44.88098016336056
 20
24.31809523809524
 10
43.384947491248546
 20
22.887619047619047
 10
44.88098016336056
 20
21.457142857142856
 10
85.27386231038507
 20
21.457142857142856
 10
86.76989498249709
 20
20.026666666666667
 10
86.76989498249709
 20
-32.90095238095238
 10
622.3495915985998
 20
-32.90095238095238
 10
622.3495915985998
 20
-31.47047619047619
 10
89.76196032672112
 20
-31.47047619047619
 10
88.2659276546091
 20
-30.04
 10
88.2659276546091
 20
20.026666666666667
 10
89.76196032672112
 20
21.457142857142856
 10
462.2740956826138
 20
21.457142857142856
 10
463.7701283547258
 20
22.887619047619047
 10
736.0480746791133
 20
22.887619047619047
 10
737.5441073512252
 20
24.31809523809524
 10
915.5719953325555
 20
24.31809523809524
 10
917.0680280046674
 20
25.748571428571427
 10
920.0600933488915
 20
25.748571428571427
 10
921.5561260210036
 20
27.17904761904762
 10
923.0521586931155
 20
27.17904761904762
 10
923.0521586931155
 20
28.609523809523807
 10
935.0204200700117
 20
40.053333333333335
 10
942.5005834305719
 20
40.053333333333335
 10
943.9966161026838
 20
41.483809523809526
 10
951.4767794632439
 20
41.483809523809526
 10
952.972812135356
 20
42.91428571428571
 10
957.460910151692
 20
42.91428571428571
 10
958.956942823804
 20
44.3447619047619
 10
961.9490081680281
 20
44.3447619047619
 10
963.4450408401401
 20
45.775238095238095
 10
964.941073512252
 20
45.775238095238095
 10
969.4291715285881
 20
50.06666666666666
 10
970.9252042007001
 20
50.06666666666666
 10
978.4053675612603
 20
57.219047619047615
 10
978.4053675612603
 20
58.64952380952381
 10
984.3894982497084
 20
64.37142857142857
 10
996.3577596266044
 20
88.6895238095238
 10
999.3498249708285
 20
91.55047619047619
 10
999.3498249708285
 20
92.98095238095237
 10
1002.3418903150525
 20
95.84190476190476
 10
1002.3418903150525
 20
97.27238095238096
 10
1006.8299883313886
 20
101.56380952380952
 10
1006.8299883313886
 20
102.99428571428571
 10
1030.7665110851808
 20
125.88190476190476
 10
1032.2625437572929
 20
125.88190476190476
 10
1036.750641773629
 20
130.17333333333332
 10
1038.246674445741
 20
130.17333333333332
 10
1045.726837806301
 20
135.89523809523808
 10
1050.2149358226372
 20
137.3257142857143
 10
1053.2070011668611
 20
140.18666666666667
 10
1063.6792298716452
 20
144.47809523809525
 10
1072.6554259043173
 20
153.0609523809524
 10
1072.6554259043173
 20
155.92190476190476
 10
1074.1514585764294
 20
157.35238095238094
 10
1075.6474912485414
 20
164.5047619047619
 10
1078.6395565927655
 20
168.79619047619047
 10
1078.6395565927655
 20
171.65714285714284
 10
1081.6316219369896
 20
175.94857142857143
 10
1081.6316219369896
 20
178.8095238095238
 10
1084.6236872812135
 20
181.6704761904762
 10
1087.6157526254376
 20
188.82285714285715
 10
1090.6078179696617
 20
191.68380952380951
 10
1090.6078179696617
 20
193.1142857142857
 10
1093.5998833138856
 20
195.9752380952381
 10
1093.5998833138856
 20
197.40571428571428
 10
1110.056242707118
 20
214.57142857142856
 10
1111.55227537923
 20
214.57142857142856
 10
1123.5205367561261
 20
224.5847619047619
 10
1128.008634772462
 20
226.0152380952381
 10
1131.0007001166862
 20
228.87619047619046
 10
1132.4967327887982
 20
228.87619047619046
 10
1136.9848308051342
 20
231.73714285714286
 10
1139.9768961493583
 20
231.73714285714286
 10
1141.4729288214703
 20
233.16761904761904
 10
1142.9689614935824
 20
233.16761904761904
 10
1144.4649941656944
 20
234.59809523809523
 10
1147.4570595099183
 20
234.59809523809523
 10
1151.9451575262544
 20
237.45904761904762
 10
1159.4253208868145
 20
238.8895238095238
 10
1163.9134189031506
 20
241.75047619047618
 10
1166.9054842473747
 20
241.75047619047618
 10
1168.4015169194865
 20
243.1809523809524
 10
1171.3935822637106
 20
243.1809523809524
 10
1175.8816802800468
 20
246.04190476190476
 10
1183.3618436406068
 20
247.47238095238095
 10
1184.8578763127189
 20
248.90285714285713
 10
1186.353908984831
 20
248.90285714285713
 10
1187.849941656943
 20
250.33333333333334
 10
1190.8420070011668
 20
250.33333333333334
 10
1195.330105017503
 20
253.1942857142857
 10
1202.810268378063
 20
254.6247619047619
 10
1207.2983663943992
 20
257.48571428571427
 10
1214.7785297549592
 20
258.9161904761905
 10
1219.2666277712954
 20
261.77714285714285
 10
1226.7467911318554
 20
263.20761904761906
 10
1231.2348891481913
 20
266.06857142857143
 10
1238.7150525087516
 20
267.4990476190476
 10
1243.2031505250875
 20
270.36
 10
1250.6833138856477
 20
271.79047619047617
 10
1255.1714119019837
 20
274.6514285714286
 10
1262.6515752625437
 20
276.08190476190475
 10
1267.1396732788799
 20
278.9428571428571
 10
1274.6198366394399
 20
280.37333333333333
 10
1279.107934655776
 20
283.2342857142857
 10
1282.1000000000001
 20
283.2342857142857
 10
1283.5960326721122
 20
284.6647619047619
 10
1286.588098016336
 20
284.6647619047619
 10
1291.0761960326722
 20
287.5257142857143
 10
1298.5563593932322
 20
288.9561904761905
 10
1303.0444574095684
 20
291.81714285714287
 10
1310.5246207701284
 20
293.247619047619
 10
1315.0127187864646
 20
296.10857142857145
 10
1318.0047841306884
 20
296.10857142857145
 10
1319.5008168028005
 20
297.5390476190476
 10
1320.9968494749126
 20
297.5390476190476
 10
1323.9889148191367
 20
300.4
 10
1325.4849474912487
 20
298.9695238095238
 10
1325.4849474912487
 20
-30.04
 10
1323.9889148191367
 20
-31.47047619047619
 10
798.881446907818
 20
-31.47047619047619
 10
798.881446907818
 20
-32.90095238095238
 10
1323.9889148191367
 20
-32.90095238095238
 10
1325.4849474912487
 20
-34.331428571428575
 10
1325.4849474912487
 20
311.8438095238095
 10
1323.9889148191367
 20
313.2742857142857
 10
1322.4928821470246
 20
323.28761904761905
 10
1320.9968494749126
 20
324.71809523809526
 10
1320.9968494749126
 20
327.5790476190476
 10
1319.5008168028005
 20
329.0095238095238
 10
1318.0047841306884
 20
339.02285714285716
 10
1316.5087514585764
 20
340.4533333333333
 10
1316.5087514585764
 20
343.3142857142857
 10
1315.0127187864646
 20
344.7447619047619
 10
1315.0127187864646
 20
349.0361904761905
 10
1313.5166861143525
 20
350.46666666666664
 10
1312.0206534422405
 20
360.48
 10
1310.5246207701284
 20
361.9104761904762
 10
1310.5246207701284
 20
364.77142857142854
 10
1309.0285880980164
 20
366.20190476190476
 10
1307.5325554259043
 20
376.2152380952381
 10
1306.0365227537923
 20
377.6457142857143
 10
1306.0365227537923
 20
380.50666666666666
 10
1304.5404900816804
 20
381.9371428571429
 10
1303.0444574095684
 20
391.9504761904762
 10
1301.5484247374563
 20
393.38095238095235
 10
1301.5484247374563
 20
396.2419047619048
 10
1300.0523920653443
 20
397.67238095238093
 10
1300.0523920653443
 20
401.9638095238095
 10
1298.5563593932322
 20
403.39428571428573
 10
1297.0603267211202
 20
413.40761904761905
 10
1295.5642940490081
 20
414.8380952380952
 10
1295.5642940490081
 20
417.69904761904763
 10
1294.0682613768963
 20
419.1295238095238
 10
1292.5722287047843
 20
429.1428571428571
 10
1291.0761960326722
 20
430.5733333333333
 10
1291.0761960326722
 20
433.4342857142857
 10
1289.5801633605602
 20
434.8647619047619
 10
1289.5801633605602
 20
439.1561904761905
 10
1288.084130688448
 20
440.58666666666664
 10
1286.588098016336
 20
450.59999999999997
 10
1285.092065344224
 20
452.0304761904762
 10
1285.092065344224
 20
454.89142857142855
 10
1283.5960326721122
 20
456.32190476190476
 10
1282.1000000000001
 20
466.3352380952381
 10
1280.603967327888
 20
467.7657142857143
 10
1280.603967327888
 20
470.62666666666667
 10
1279.107934655776
 20
472.0571428571429
 10
1277.611901983664
 20
482.0704761904762
 10
1276.115869311552
 20
483.50095238095236
 10
1276.115869311552
 20
486.3619047619048
 10
1274.6198366394399
 20
487.79238095238094
 10
1274.6198366394399
 20
492.0838095238095
 10
1273.1238039673278
 20
493.51428571428573
 10
1271.627771295216
 20
503.52761904761905
 10
1270.131738623104
 20
504.9580952380952
 10
1270.131738623104
 20
507.81904761904764
 10
1268.635705950992
 20
509.2495238095238
 10
1267.1396732788799
 20
519.2628571428571
 10
1265.6436406067678
 20
520.6933333333333
 10
1265.6436406067678
 20
523.5542857142857
 10
1264.1476079346558
 20
524.9847619047619
 10
1262.6515752625437
 20
534.9980952380952
 10
1261.1555425904319
 20
536.4285714285714
 10
1261.1555425904319
 20
539.2895238095238
 10
1259.6595099183198
 20
540.72
 10
1259.6595099183198
 20
545.0114285714286
 10
1258.1634772462078
 20
546.4419047619048
 10
1258.1634772462078
 20
550.7333333333333
 10
1256.6674445740957
 20
552.1638095238095
 10
1256.6674445740957
 20
556.4552380952381
 10
1255.1714119019837
 20
557.8857142857142
 10
1255.1714119019837
 20
560.7466666666667
 10
1253.6753792298716
 20
562.1771428571428
 10
1253.6753792298716
 20
566.4685714285714
 10
1252.1793465577596
 20
567.8990476190476
 10
1252.1793465577596
 20
572.1904761904761
 10
1250.6833138856477
 20
573.6209523809524
 10
1249.1872812135357
 20
580.7733333333333
 10
1247.6912485414236
 20
582.2038095238095
 10
1247.6912485414236
 20
583.6342857142857
 10
1243.2031505250875
 20
587.9257142857143
 10
1241.7071178529754
 20
587.9257142857143
 10
1237.2190198366395
 20
592.2171428571429
 10
1235.7229871645275
 20
592.2171428571429
 10
1226.7467911318554
 20
599.3695238095238
 10
1225.2507584597433
 20
599.3695238095238
 10
1220.7626604434072
 20
603.6609523809524
 10
1219.2666277712954
 20
603.6609523809524
 10
1211.786464410735
 20
610.8133333333333
 10
1210.290431738623
 20
610.8133333333333
 10
1208.7943990665112
 20
612.2438095238095
 10
1208.7943990665112
 20
613.6742857142857
 10
1204.306301050175
 20
617.9657142857143
 10
1204.306301050175
 20
619.3961904761904
 10
1201.314235705951
 20
623.687619047619
 10
1201.314235705951
 20
626.5485714285714
 10
1199.818203033839
 20
627.9790476190476
 10
1199.818203033839
 20
659.4495238095238
 10
1201.314235705951
 20
660.88
 10
1201.314235705951
 20
670.8933333333333
 10
1199.818203033839
 20
672.3238095238095
 10
1199.818203033839
 20
675.1847619047619
 10
1198.322170361727
 20
676.615238095238
 10
1198.322170361727
 20
678.0457142857143
 10
1195.330105017503
 20
680.9066666666666
 10
1193.834072345391
 20
680.9066666666666
 10
1189.3459743290548
 20
683.7676190476191
 10
1186.353908984831
 20
683.7676190476191
 10
1184.8578763127189
 20
685.1980952380952
 10
1178.8737456242707
 20
685.1980952380952
 10
1177.3777129521588
 20
686.6285714285714
 10
1172.8896149358227
 20
686.6285714285714
 10
1171.3935822637106
 20
688.0590476190476
 10
1166.9054842473747
 20
688.0590476190476
 10
1165.4094515752627
 20
689.4895238095238
 10
1160.9213535589265
 20
689.4895238095238
 10
1159.4253208868145
 20
690.92
 10
1153.4411901983665
 20
690.92
 10
1151.9451575262544
 20
692.3504761904762
 10
1147.4570595099183
 20
692.3504761904762
 10
1145.9610268378065
 20
693.7809523809524
 10
1141.4729288214703
 20
693.7809523809524
 10
1139.9768961493583
 20
695.2114285714285
 10
1135.4887981330223
 20
695.2114285714285
 10
1133.9927654609103
 20
696.6419047619047
 10
1128.008634772462
 20
696.6419047619047
 10
1126.51260210035
 20
698.072380952381
 10
1122.024504084014
 20
698.072380952381
 10
1120.528471411902
 20
699.5028571428571
 10
1116.040373395566
 20
699.5028571428571
 10
1114.544340723454
 20
700.9333333333333
 10
1110.056242707118
 20
700.9333333333333
 10
1108.5602100350059
 20
702.3638095238096
 10
1102.576079346558
 20
702.3638095238096
 10
1101.0800466744458
 20
703.7942857142857
 10
1096.5919486581097
 20
703.7942857142857
 10
1095.0959159859976
 20
705.2247619047619
 10
1090.6078179696617
 20
705.2247619047619
 10
1089.1117852975497
 20
706.6552380952381
 10
1083.1276546091015
 20
706.6552380952381
 10
1081.6316219369896
 20
708.0857142857143
 10
1077.1435239206535
 20
708.0857142857143
 10
1075.6474912485414
 20
709.5161904761904
 10
1071.1593932322055
 20
709.5161904761904
 10
1069.6633605600935
 20
710.9466666666666
 10
1065.1752625437573
 20
710.9466666666666
 10
1063.6792298716452
 20
712.3771428571429
 10
1057.6950991831973
 20
712.3771428571429
 10
1056.1990665110852
 20
713.807619047619
 10
1051.710968494749
 20
713.807619047619
 10
1050.2149358226372
 20
715.2380952380952
 10
1045.726837806301
 20
715.2380952380952
 10
1044.230805134189
 20
716.6685714285715
 10
1038.246674445741
 20
716.6685714285715
 10
1036.750641773629
 20
715.2380952380952
 10
1035.254609101517
 20
715.2380952380952
 10
1030.7665110851808
 20
710.9466666666666
 10
1030.7665110851808
 20
700.9333333333333
 10
1029.270478413069
 20
699.5028571428571
 10
1029.270478413069
 20
619.3961904761904
 10
1027.774445740957
 20
617.9657142857143
 10
1026.2784130688449
 20
607.952380952381
 10
1024.7823803967328
 20
606.5219047619048
 10
1024.7823803967328
 20
605.0914285714285
 10
1023.2863477246208
 20
603.6609523809524
 10
1023.2863477246208
 20
600.8
 10
1020.2942823803968
 20
597.9390476190476
 10
1018.7982497082847
 20
593.6476190476191
 10
1015.8061843640608
 20
590.7866666666666
 10
1015.8061843640608
 20
589.3561904761905
 10
1000.8458576429406
 20
575.0514285714286
 10
999.3498249708285
 20
575.0514285714286
 10
996.3577596266044
 20
572.1904761904761
 10
994.8617269544925
 20
572.1904761904761
 10
981.3974329054843
 20
565.0380952380953
 10
978.4053675612603
 20
565.0380952380953
 10
970.9252042007001
 20
560.7466666666667
 10
963.4450408401401
 20
559.3161904761905
 10
958.956942823804
 20
556.4552380952381
 10
955.96487747958
 20
556.4552380952381
 10
954.4688448074679
 20
555.0247619047619
 10
951.4767794632439
 20
555.0247619047619
 10
949.9807467911319
 20
553.5942857142857
 10
946.9886814469079
 20
553.5942857142857
 10
945.4926487747958
 20
552.1638095238095
 10
942.5005834305719
 20
552.1638095238095
 10
941.0045507584598
 20
550.7333333333333
 10
936.5164527421238
 20
550.7333333333333
 10
935.0204200700117
 20
549.3028571428572
 10
924.5481913652276
 20
547.8723809523809
 10
923.0521586931155
 20
546.4419047619048
 10
917.0680280046674
 20
546.4419047619048
 10
915.5719953325555
 20
545.0114285714286
 10
908.0918319719954
 20
545.0114285714286
 10
906.5957992998833
 20
543.5809523809523
 10
899.1156359393233
 20
543.5809523809523
 10
897.6196032672112
 20
542.1504761904762
 10
884.1553092182031
 20
542.1504761904762
 10
882.6592765460911
 20
540.72
 10
746.5203033838974
 20
540.72
 10
745.0242707117853
 20
539.2895238095238
 10
743.5282380396733
 20
540.72
 10
742.0322053675613
 20
539.2895238095238
 10
535.5796966161028
 20
539.2895238095238
 10
534.0836639439907
 20
540.72
 10
528.0995332555426
 20
540.72
 10
526.6035005834306
 20
542.1504761904762
 10
522.1154025670945
 20
542.1504761904762
 10
520.6193698949825
 20
543.5809523809523
 10
516.1312718786464
 20
543.5809523809523
 10
514.6352392065345
 20
545.0114285714286
 10
508.65110851808635
 20
545.0114285714286
 10
507.15507584597435
 20
546.4419047619048
 10
502.6669778296383
 20
546.4419047619048
 10
501.17094515752626
 20
547.8723809523809
 10
498.1788798133022
 20
547.8723809523809
 10
496.6828471411902
 20
549.3028571428572
 10
493.6907817969662
 20
549.3028571428572
 10
492.1947491248542
 20
550.7333333333333
 10
487.7066511085181
 20
550.7333333333333
 10
486.2106184364061
 20
552.1638095238095
 10
483.21855309218205
 20
552.1638095238095
 10
481.72252042007005
 20
553.5942857142857
 10
478.730455075846
 20
553.5942857142857
 10
477.23442240373396
 20
555.0247619047619
 10
469.7542590431739
 20
556.4552380952381
 10
465.26616102683784
 20
559.3161904761905
 10
460.7780630105018
 20
559.3161904761905
 10
456.2899649941657
 20
562.1771428571428
 10
453.29789964994166
 20
562.1771428571428
 10
445.81773628938157
 20
566.4685714285714
 10
442.8256709451575
 20
566.4685714285714
 10
441.32963827304553
 20
567.8990476190476
 10
439.8336056009335
 20
567.8990476190476
 10
423.3772462077013
 20
576.4819047619047
 10
420.3851808634773
 20
576.4819047619047
 10
417.39311551925323
 20
579.3428571428572
 10
412.9050175029172
 20
580.7733333333333
 10
409.91295215869314
 20
583.6342857142857
 10
408.4169194865811
 20
583.6342857142857
 10
394.9526254375729
 20
596.5085714285714
 10
394.9526254375729
 20
597.9390476190476
 10
388.9684947491249
 20
605.0914285714285
 10
388.9684947491249
 20
606.5219047619048
 10
384.4803967327888
 20
613.6742857142857
 10
384.4803967327888
 20
616.5352380952381
 10
382.9843640606768
 20
617.9657142857143
 10
382.9843640606768
 20
622.2571428571429
 10
381.4883313885648
 20
623.687619047619
 10
381.4883313885648
 20
630.84
 10
379.99229871645275
 20
632.2704761904762
 10
379.99229871645275
 20
710.9466666666666
 10
375.5042007001167
 20
715.2380952380952
 10
374.00816802800466
 20
715.2380952380952
 10
372.51213535589267
 20
716.6685714285715
 10
366.5280046674446
 20
716.6685714285715
 10
365.0319719953326
 20
715.2380952380952
 10
43.384947491248546
 20
715.2380952380952
  0
LWPOLYLINE
  5
30
330
17
100
AcDbEntity
  8
BOUNDING_BOX
  6
DASHED
 62
4
370
25
100
AcDbPolyline
 90
5
 70
0
 10
43.384947491248546
 20
-34.331428571428575
 10
1325.4849474912487
 20
-34.331428571428575
 10
1325.4849474912487
 20
716.6685714285715
 10
43.384947491248546
 20
716.6685714285715
 10
43.384947491248546
 20
-34.331428571428575
  0
TEXT
  5
31
330
17
100
AcDbEntity
  8
TEXT
 62
7
100
AcDbText
 10
43.384947491248546
 20
-64.33142857142857
 30
0.0
 40
10.0
  1
Шаблон: traktor.pngРазмеры: 1282.1 x 751.0 ммТочек: 547Масштаб: X=1.496 Y=1.430 мм/пикс
100
AcDbText
  0
ENDSEC
  0
SECTION
  2
OBJECTS
  0
DICTIONARY
  5
A
330
0
100
AcDbDictionary
280
0
281
1
  3
ACAD_COLOR
350
B
  3
ACAD_GROUP
350
C
  3
ACAD_LAYOUT
350
D
  3
ACAD_MATERIAL
350
E
  3
ACAD_MLEADERSTYLE
350
F
  3
ACAD_MLINESTYLE
350
10
  3
ACAD_PLOTSETTINGS
350
11
  3
ACAD_PLOTSTYLENAME
350
12
  3
ACAD_SCALELIST
350
14
  3
ACAD_TABLESTYLE
350
15
  3
ACAD_VISUALSTYLE
350
16
  3
EZDXF_META
350
2D
  0
DICTIONARY
  5
B
330
A
100
AcDbDictionary
280
0
281
1
  0
DICTIONARY
  5
C
330
A
100
AcDbDictionary
280
0
281
1
  0
DICTIONARY
  5
D
330
A
100
AcDbDictionary
280
0
281
1
  3
Model
350
1A
  3
Layout1
350
1E
  0
DICTIONARY
  5
E
330
A
100
AcDbDictionary
280
0
281
1
  3
ByBlock
350
1F
  3
ByLayer
350
20
  3
Global
350
21
  0
DICTIONARY
  5
F
330
A
100
AcDbDictionary
280
0
281
1
  3
Standard
350
2C
  0
DICTIONARY
  5
10
330
A
100
AcDbDictionary
280
0
281
1
  3
Standard
350
22
  0
DICTIONARY
  5
11
330
A
100
AcDbDictionary
280
0
281
1
  0
ACDBDICTIONARYWDFLT
  5
12
330
A
100
AcDbDictionary
280
0
281
1
  3
Normal
350
13
100
AcDbDictionaryWithDefault
340
13
  0
ACDBPLACEHOLDER
  5
13
330
12
  0
DICTIONARY
  5
14
330
A
100
AcDbDictionary
280
0
281
1
  0
DICTIONARY
  5
15
330
A
100
AcDbDictionary
280
0
281
1
  0
DICTIONARY
  5
16
330
A
100
AcDbDictionary
280
0
281
1
  0
LAYOUT
  5
1A
330
D
100
AcDbPlotSettings
  1

  4
A3
  6

 40
7.5
 41
20.0
 42
7.5
 43
20.0
 44
420.0
 45
297.0
 46
0.0
 47
0.0
 48
0.0
 49
0.0
140
0.0
141
0.0
142
1.0
143
1.0
 70
1024
 72
1
 73
0
 74
5
  7

 75
16
 76
0
 77
2
 78
300
147
1.0
148
0.0
149
0.0
100
AcDbLayout
  1
Model
 70
1
 71
0
 10
0.0
 20
0.0
 11
420.0
 21
297.0
 12
0.0
 22
0.0
 32
0.0
 14
1e+20
 24
1e+20
 34
1e+20
 15
-1e+20
 25
-1e+20
 35
-1e+20
146
0.0
 13
0.0
 23
0.0
 33
0.0
 16
1.0
 26
0.0
 36
0.0
 17
0.0
 27
1.0
 37
0.0
 76
1
330
17
  0
LAYOUT
  5
1E
330
D
100
AcDbPlotSettings
  1

  4
A3
  6

 40
7.5
 41
20.0
 42
7.5
 43
20.0
 44
420.0
 45
297.0
 46
0.0
 47
0.0
 48
0.0
 49
0.0
140
0.0
141
0.0
142
1.0
143
1.0
 70
0
 72
1
 73
0
 74
5
  7

 75
16
 76
0
 77
2
 78
300
147
1.0
148
0.0
149
0.0
100
AcDbLayout
  1
Layout1
 70
1
 71
1
 10
0.0
 20
0.0
 11
420.0
 21
297.0
 12
0.0
 22
0.0
 32
0.0
 14
1e+20
 24
1e+20
 34
1e+20
 15
-1e+20
 25
-1e+20
 35
-1e+20
146
0.0
 13
0.0
 23
0.0
 33
0.0
 16
1.0
 26
0.0
 36
0.0
 17
0.0
 27
1.0
 37
0.0
 76
1
330
1B
  0
MATERIAL
  5
1F
102
{ACAD_REACTORS
330
E
102
}
330
E
100
AcDbMaterial
  1
ByBlock
  2

 70
0
 40
1.0
 71
1
 41
1.0
 91
-1023410177
 42
1.0
 72
1
  3

 73
1
 74
1
 75
1
 44
0.5
 73
0
 45
1.0
 46
1.0
 77
1
  4

 78
1
 79
1
170
1
 48
1.0
171
1
  6

172
1
173
1
174
1
140
1.0
141
1.0
175
1
  7

176
1
177
1
178
1
143
1.0
179
1
  8

270
1
271
1
272
1
145
1.0
146
1.0
273
1
  9

274
1
275
1
276
1
 42
1.0
 72
1
  3

 73
1
 74
1
 75
1
 94
63
  0
MATERIAL
  5
20
102
{ACAD_REACTORS
330
E
102
}
330
E
100
AcDbMaterial
  1
ByLayer
  2

 70
0
 40
1.0
 71
1
 41
1.0
 91
-1023410177
 42
1.0
 72
1
  3

 73
1
 74
1
 75
1
 44
0.5
 73
0
 45
1.0
 46
1.0
 77
1
  4

 78
1
 79
1
170
1
 48
1.0
171
1
  6

172
1
173
1
174
1
140
1.0
141
1.0
175
1
  7

176
1
177
1
178
1
143
1.0
179
1
  8

270
1
271
1
272
1
145
1.0
146
1.0
273
1
  9

274
1
275
1
276
1
 42
1.0
 72
1
  3

 73
1
 74
1
 75
1
 94
63
  0
MATERIAL
  5
21
102
{ACAD_REACTORS
330
E
102
}
330
E
100
AcDbMaterial
  1
Global
  2

 70
0
 40
1.0
 71
1
 41
1.0
 91
-1023410177
 42
1.0
 72
1
  3

 73
1
 74
1
 75
1
 44
0.5
 73
0
 45
1.0
 46
1.0
 77
1
  4

 78
1
 79
1
170
1
 48
1.0
171
1
  6

172
1
173
1
174
1
140
1.0
141
1.0
175
1
  7

176
1
177
1
178
1
143
1.0
179
1
  8

270
1
271
1
272
1
145
1.0
146
1.0
273
1
  9

274
1
275
1
276
1
 42
1.0
 72
1
  3

 73
1
 74
1
 75
1
 94
63
  0
MLINESTYLE
  5
22
102
{ACAD_REACTORS
330
10
102
}
330
10
100
AcDbMlineStyle
  2
Standard
 70
0
  3

 62
256
 51
90.0
 52
90.0
 71
2
 49
0.5
 62
256
  6
BYLAYER
 49
-0.5
 62
256
  6
BYLAYER
  0
MLEADERSTYLE
  5
2C
102
{ACAD_REACTORS
330
F
102
}
330
F
100
AcDbMLeaderStyle
179
2
170
2
171
1
172
0
 90
2
 40
0.0
 41
0.0
173
1
 91
-1056964608
 92
-2
290
1
 42
2.0
291
1
 43
8.0
  3
Standard
 44
4.0
300

342
29
174
1
175
1
176
0
178
1
 93
-1056964608
 45
4.0
292
0
297
0
 46
4.0
 94
-1056964608
 47
1.0
 49
1.0
140
1.0
294
1
141
0.0
177
0
142
1.0
295
0
296
0
143
3.75
271
0
272
9
273
9
  0
DICTIONARY
  5
2D
330
A
100
AcDbDictionary
280
1
281
1
  3
CREATED_BY_EZDXF
350
2E
  3
WRITTEN_BY_EZDXF
350
34
  0
DICTIONARYVAR
  5
2E
330
2D
100
DictionaryVariables
280
0
  1
1.3.5 @ 2026-05-22T12:12:05.643258+00:00
  0
DICTIONARYVAR
  5
34
330
2D
100
DictionaryVariables
280
0
  1
1.3.5 @ 2026-05-22T12:12:05.661242+00:00
  0
ENDSEC
  0
EOF
