  0
SECTION
  2
HEADER
  9
$ACADVER
  1
AC1024
  9
$ACADMAINTVER
 70
6
  9
$DWGCODEPAGE
  3
ANSI_1252
  9
$LASTSAVEDBY
  1
ezdxf
  9
$INSBASE
 10
0.0
 20
0.0
 30
0.0
  9
$EXTMIN
 10
1e+20
 20
1e+20
 30
1e+20
  9
$EXTMAX
 10
-1e+20
 20
-1e+20
 30
-1e+20
  9
$LIMMIN
 10
0.0
 20
0.0
  9
$LIMMAX
 10
420.0
 20
297.0
  9
$ORTHOMODE
 70
0
  9
$REGENMODE
 70
1
  9
$FILLMODE
 70
1
  9
$QTEXTMODE
 70
0
  9
$MIRRTEXT
 70
1
  9
$LTSCALE
 40
1.0
  9
$ATTMODE
 70
1
  9
$TEXTSIZE
 40
2.5
  9
$TRACEWID
 40
1.0
  9
$TEXTSTYLE
  7
Standard
  9
$CLAYER
  8
0
  9
$CELTYPE
  6
ByLayer
  9
$CECOLOR
 62
256
  9
$CELTSCALE
 40
1.0
  9
$DISPSILH
 70
0
  9
$DIMSCALE
 40
1.0
  9
$DIMASZ
 40
2.5
  9
$DIMEXO
 40
0.625
  9
$DIMDLI
 40
3.75
  9
$DIMRND
 40
0.0
  9
$DIMDLE
 40
0.0
  9
$DIMEXE
 40
1.25
  9
$DIMTP
 40
0.0
  9
$DIMTM
 40
0.0
  9
$DIMTXT
 40
2.5
  9
$DIMCEN
 40
2.5
  9
$DIMTSZ
 40
0.0
  9
$DIMTOL
 70
0
  9
$DIMLIM
 70
0
  9
$DIMTIH
 70
0
  9
$DIMTOH
 70
0
  9
$DIMSE1
 70
0
  9
$DIMSE2
 70
0
  9
$DIMTAD
 70
1
  9
$DIMZIN
 70
8
  9
$DIMBLK
  1

  9
$DIMASO
 70
1
  9
$DIMSHO
 70
1
  9
$DIMPOST
  1

  9
$DIMAPOST
  1

  9
$DIMALT
 70
0
  9
$DIMALTD
 70
3
  9
$DIMALTF
 40
0.03937007874
  9
$DIMLFAC
 40
1.0
  9
$DIMTOFL
 70
1
  9
$DIMTVP
 40
0.0
  9
$DIMTIX
 70
0
  9
$DIMSOXD
 70
0
  9
$DIMSAH
 70
0
  9
$DIMBLK1
  1

  9
$DIMBLK2
  1

  9
$DIMSTYLE
  2
ISO-25
  9
$DIMCLRD
 70
0
  9
$DIMCLRE
 70
0
  9
$DIMCLRT
 70
0
  9
$DIMTFAC
 40
1.0
  9
$DIMGAP
 40
0.625
  9
$DIMJUST
 70
0
  9
$DIMSD1
 70
0
  9
$DIMSD2
 70
0
  9
$DIMTOLJ
 70
0
  9
$DIMTZIN
 70
8
  9
$DIMALTZ
 70
0
  9
$DIMALTTZ
 70
0
  9
$DIMUPT
 70
0
  9
$DIMDEC
 70
2
  9
$DIMTDEC
 70
2
  9
$DIMALTU
 70
2
  9
$DIMALTTD
 70
3
  9
$DIMTXSTY
  7
Standard
  9
$DIMAUNIT
 70
0
  9
$DIMADEC
 70
0
  9
$DIMALTRND
 40
0.0
  9
$DIMAZIN
 70
0
  9
$DIMDSEP
 70
44
  9
$DIMATFIT
 70
3
  9
$DIMFRAC
 70
0
  9
$DIMLDRBLK
  1

  9
$DIMLUNIT
 70
2
  9
$DIMLWD
 70
-2
  9
$DIMLWE
 70
-2
  9
$DIMTMOVE
 70
0
  9
$DIMFXL
 40
1.0
  9
$DIMFXLON
 70
0
  9
$DIMJOGANG
 40
0.785398163397
  9
$DIMTFILL
 70
0
  9
$DIMTFILLCLR
 70
0
  9
$DIMARCSYM
 70
0
  9
$DIMLTYPE
  6

  9
$DIMLTEX1
  6

  9
$DIMLTEX2
  6

  9
$DIMTXTDIRECTION
 70
0
  9
$LUNITS
 70
2
  9
$LUPREC
 70
4
  9
$SKETCHINC
 40
1.0
  9
$FILLETRAD
 40
10.0
  9
$AUNITS
 70
0
  9
$AUPREC
 70
2
  9
$MENU
  1
.
  9
$ELEVATION
 40
0.0
  9
$PELEVATION
 40
0.0
  9
$THICKNESS
 40
0.0
  9
$LIMCHECK
 70
0
  9
$CHAMFERA
 40
0.0
  9
$CHAMFERB
 40
0.0
  9
$CHAMFERC
 40
0.0
  9
$CHAMFERD
 40
0.0
  9
$SKPOLY
 70
0
  9
$TDCREATE
 40
2461183.642488426
  9
$TDUCREATE
 40
2458532.153996898
  9
$TDUPDATE
 40
2461183.642488426
  9
$TDUUPDATE
 40
2458532.1544311
  9
$TDINDWG
 40
0.0
  9
$TDUSRTIMER
 40
0.0
  9
$USRTIMER
 70
1
  9
$ANGBASE
 50
0.0
  9
$ANGDIR
 70
0
  9
$PDMODE
 70
0
  9
$PDSIZE
 40
0.0
  9
$PLINEWID
 40
0.0
  9
$SPLFRAME
 70
0
  9
$SPLINETYPE
 70
6
  9
$SPLINESEGS
 70
8
  9
$HANDSEED
  5
35
  9
$SURFTAB1
 70
6
  9
$SURFTAB2
 70
6
  9
$SURFTYPE
 70
6
  9
$SURFU
 70
6
  9
$SURFV
 70
6
  9
$UCSBASE
  2

  9
$UCSNAME
  2

  9
$UCSORG
 10
0.0
 20
0.0
 30
0.0
  9
$UCSXDIR
 10
1.0
 20
0.0
 30
0.0
  9
$UCSYDIR
 10
0.0
 20
1.0
 30
0.0
  9
$UCSORTHOREF
  2

  9
$UCSORTHOVIEW
 70
0
  9
$UCSORGTOP
 10
0.0
 20
0.0
 30
0.0
  9
$UCSORGBOTTOM
 10
0.0
 20
0.0
 30
0.0
  9
$UCSORGLEFT
 10
0.0
 20
0.0
 30
0.0
  9
$UCSORGRIGHT
 10
0.0
 20
0.0
 30
0.0
  9
$UCSORGFRONT
 10
0.0
 20
0.0
 30
0.0
  9
$UCSORGBACK
 10
0.0
 20
0.0
 30
0.0
  9
$PUCSBASE
  2

  9
$PUCSNAME
  2

  9
$PUCSORG
 10
0.0
 20
0.0
 30
0.0
  9
$PUCSXDIR
 10
1.0
 20
0.0
 30
0.0
  9
$PUCSYDIR
 10
0.0
 20
1.0
 30
0.0
  9
$PUCSORTHOREF
  2

  9
$PUCSORTHOVIEW
 70
0
  9
$PUCSORGTOP
 10
0.0
 20
0.0
 30
0.0
  9
$PUCSORGBOTTOM
 10
0.0
 20
0.0
 30
0.0
  9
$PUCSORGLEFT
 10
0.0
 20
0.0
 30
0.0
  9
$PUCSORGRIGHT
 10
0.0
 20
0.0
 30
0.0
  9
$PUCSORGFRONT
 10
0.0
 20
0.0
 30
0.0
  9
$PUCSORGBACK
 10
0.0
 20
0.0
 30
0.0
  9
$USERI1
 70
0
  9
$USERI2
 70
0
  9
$USERI3
 70
0
  9
$USERI4
 70
0
  9
$USERI5
 70
0
  9
$USERR1
 40
0.0
  9
$USERR2
 40
0.0
  9
$USERR3
 40
0.0
  9
$USERR4
 40
0.0
  9
$USERR5
 40
0.0
  9
$WORLDVIEW
 70
1
  9
$SHADEDGE
 70
3
  9
$SHADEDIF
 70
70
  9
$TILEMODE
 70
1
  9
$MAXACTVP
 70
64
  9
$PINSBASE
 10
0.0
 20
0.0
 30
0.0
  9
$PLIMCHECK
 70
0
  9
$PEXTMIN
 10
1e+20
 20
1e+20
 30
1e+20
  9
$PEXTMAX
 10
-1e+20
 20
-1e+20
 30
-1e+20
  9
$PLIMMIN
 10
0.0
 20
0.0
  9
$PLIMMAX
 10
420.0
 20
297.0
  9
$UNITMODE
 70
0
  9
$VISRETAIN
 70
1
  9
$PLINEGEN
 70
0
  9
$PSLTSCALE
 70
1
  9
$TREEDEPTH
 70
3020
  9
$CMLSTYLE
  2
Standard
  9
$CMLJUST
 70
0
  9
$CMLSCALE
 40
20.0
  9
$PROXYGRAPHICS
 70
1
  9
$MEASUREMENT
 70
1
  9
$CELWEIGHT
370
-1
  9
$ENDCAPS
280
0
  9
$JOINSTYLE
280
0
  9
$LWDISPLAY
290
0
  9
$INSUNITS
 70
6
  9
$HYPERLINKBASE
  1

  9
$STYLESHEET
  1

  9
$XEDIT
290
1
  9
$CEPSNTYPE
380
0
  9
$PSTYLEMODE
290
1
  9
$FINGERPRINTGUID
  2
{68A377A0-6CC8-4468-B697-BB9BD2383D39}
  9
$VERSIONGUID
  2
{43ADBC17-7CD5-4297-B244-1B6D58FD849B}
  9
$EXTNAMES
290
1
  9
$PSVPSCALE
 40
0.0
  9
$OLESTARTUP
290
0
  9
$SORTENTS
280
127
  9
$INDEXCTL
280
0
  9
$HIDETEXT
280
1
  9
$XCLIPFRAME
280
1
  9
$HALOGAP
280
0
  9
$OBSCOLOR
 70
257
  9
$OBSLTYPE
280
0
  9
$INTERSECTIONDISPLAY
280
0
  9
$INTERSECTIONCOLOR
 70
257
  9
$DIMASSOC
280
2
  9
$PROJECTNAME
  1

  9
$CAMERADISPLAY
290
0
  9
$LENSLENGTH
 40
50.0
  9
$CAMERAHEIGHT
 40
0.0
  9
$STEPSPERSEC
 40
24.0
  9
$STEPSIZE
 40
100.0
  9
$3DDWFPREC
 40
2.0
  9
$PSOLWIDTH
 40
0.005
  9
$PSOLHEIGHT
 40
0.08
  9
$LOFTANG1
 40
1.570796326795
  9
$LOFTANG2
 40
1.570796326795
  9
$LOFTMAG1
 40
0.0
  9
$LOFTMAG2
 40
0.0
  9
$LOFTPARAM
 70
7
  9
$LOFTNORMALS
280
1
  9
$LATITUDE
 40
37.795
  9
$LONGITUDE
 40
-122.394
  9
$NORTHDIRECTION
 40
0.0
  9
$TIMEZONE
 70
-8000
  9
$LIGHTGLYPHDISPLAY
280
1
  9
$TILEMODELIGHTSYNCH
280
1
  9
$CMATERIAL
347
20
  9
$SOLIDHIST
280
0
  9
$SHOWHIST
280
1
  9
$DWFFRAME
280
2
  9
$DGNFRAME
280
2
  9
$REALWORLDSCALE
290
1
  9
$INTERFERECOLOR
 62
256
  9
$CSHADOW
280
0
  9
$SHADOWPLANELOCATION
 40
0.0
  0
ENDSEC
  0
SECTION
  2
CLASSES
  0
CLASS
  1
ACDBDICTIONARYWDFLT
  2
AcDbDictionaryWithDefault
  3
ObjectDBX Classes
 90
0
 91
0
280
0
281
0
  0
CLASS
  1
SUN
  2
AcDbSun
  3
SCENEOE
 90
1153
 91
0
280
0
281
0
  0
CLASS
  1
VISUALSTYLE
  2
AcDbVisualStyle
  3
ObjectDBX Classes
 90
4095
 91
0
280
0
281
0
  0
CLASS
  1
MATERIAL
  2
AcDbMaterial
  3
ObjectDBX Classes
 90
1153
 91
0
280
0
281
0
  0
CLASS
  1
SCALE
  2
AcDbScale
  3
ObjectDBX Classes
 90
1153
 91
0
280
0
281
0
  0
CLASS
  1
TABLESTYLE
  2
AcDbTableStyle
  3
ObjectDBX Classes
 90
4095
 91
0
280
0
281
0
  0
CLASS
  1
MLEADERSTYLE
  2
AcDbMLeaderStyle
  3
ACDB_MLEADERSTYLE_CLASS
 90
4095
 91
0
280
0
281
0
  0
CLASS
  1
DICTIONARYVAR
  2
AcDbDictionaryVar
  3
ObjectDBX Classes
 90
0
 91
0
280
0
281
0
  0
CLASS
  1
CELLSTYLEMAP
  2
AcDbCellStyleMap
  3
ObjectDBX Classes
 90
1152
 91
0
280
0
281
0
  0
CLASS
  1
MENTALRAYRENDERSETTINGS
  2
AcDbMentalRayRenderSettings
  3
SCENEOE
 90
1024
 91
0
280
0
281
0
  0
CLASS
  1
ACDBDETAILVIEWSTYLE
  2
AcDbDetailViewStyle
  3
ObjectDBX Classes
 90
1025
 91
0
280
0
281
0
  0
CLASS
  1
ACDBSECTIONVIEWSTYLE
  2
AcDbSectionViewStyle
  3
ObjectDBX Classes
 90
1025
 91
0
280
0
281
0
  0
CLASS
  1
RASTERVARIABLES
  2
AcDbRasterVariables
  3
ISM
 90
0
 91
0
280
0
281
0
  0
CLASS
  1
ACDBPLACEHOLDER
  2
AcDbPlaceHolder
  3
ObjectDBX Classes
 90
0
 91
0
280
0
281
0
  0
CLASS
  1
LAYOUT
  2
AcDbLayout
  3
ObjectDBX Classes
 90
0
 91
0
280
0
281
0
  0
ENDSEC
  0
SECTION
  2
TABLES
  0
TABLE
  2
VPORT
  5
8
330
0
100
AcDbSymbolTable
 70
1
  0
VPORT
  5
23
330
8
100
AcDbSymbolTableRecord
100
AcDbViewportTableRecord
  2
*Active
 70
0
 10
0.0
 20
0.0
 11
1.0
 21
1.0
 12
0.0
 22
0.0
 13
0.0
 23
0.0
 14
0.5
 24
0.5
 15
0.5
 25
0.5
 16
0.0
 26
0.0
 36
1.0
 17
0.0
 27
0.0
 37
0.0
 40
1000.0
 41
1.34
 42
50.0
 43
0.0
 44
0.0
 50
0.0
 51
0.0
 71
0
 72
1000
 73
1
 74
3
 75
0
 76
0
 77
0
 78
0
281
0
 65
0
146
0.0
  0
ENDTAB
  0
TABLE
  2
LTYPE
  5
2
330
0
100
AcDbSymbolTable
 70
3
  0
LTYPE
  5
24
330
2
100
AcDbSymbolTableRecord
100
AcDbLinetypeTableRecord
  2
ByBlock
 70
0
  3

 72
65
 73
0
 40
0.0
  0
LTYPE
  5
25
330
2
100
AcDbSymbolTableRecord
100
AcDbLinetypeTableRecord
  2
ByLayer
 70
0
  3

 72
65
 73
0
 40
0.0
  0
LTYPE
  5
26
330
2
100
AcDbSymbolTableRecord
100
AcDbLinetypeTableRecord
  2
Continuous
 70
0
  3

 72
65
 73
0
 40
0.0
  0
ENDTAB
  0
TABLE
  2
LAYER
  5
1
330
0
100
AcDbSymbolTable
 70
2
  0
LAYER
  5
27
330
1
100
AcDbSymbolTableRecord
100
AcDbLayerTableRecord
  2
0
 70
0
 62
7
  6
Continuous
370
-3
390
13
347
21
  0
LAYER
  5
28
330
1
100
AcDbSymbolTableRecord
100
AcDbLayerTableRecord
  2
Defpoints
 70
0
 62
7
  6
Continuous
290
0
370
-3
390
13
347
21
  0
ENDTAB
  0
TABLE
  2
STYLE
  5
5
330
0
100
AcDbSymbolTable
 70
1
  0
STYLE
  5
29
330
5
100
AcDbSymbolTableRecord
100
AcDbTextStyleTableRecord
  2
Standard
 70
0
 40
0.0
 41
1.0
 50
0.0
 71
0
 42
2.5
  3
txt
  4

  0
ENDTAB
  0
TABLE
  2
VIEW
  5
7
330
0
100
AcDbSymbolTable
 70
0
  0
ENDTAB
  0
TABLE
  2
UCS
  5
6
330
0
100
AcDbSymbolTable
 70
0
  0
ENDTAB
  0
TABLE
  2
APPID
  5
3
330
0
100
AcDbSymbolTable
 70
3
  0
APPID
  5
2A
330
3
100
AcDbSymbolTableRecord
100
AcDbRegAppTableRecord
  2
ACAD
 70
0
  0
APPID
  5
32
330
3
100
AcDbSymbolTableRecord
100
AcDbRegAppTableRecord
  2
HATCHBACKGROUNDCOLOR
 70
0
  0
APPID
  5
33
330
3
100
AcDbSymbolTableRecord
100
AcDbRegAppTableRecord
  2
EZDXF
 70
0
  0
ENDTAB
  0
TABLE
  2
DIMSTYLE
  5
4
330
0
100
AcDbSymbolTable
 70
1
100
AcDbDimStyleTable
  0
DIMSTYLE
105
2B
330
4
100
AcDbSymbolTableRecord
100
AcDbDimStyleTableRecord
  2
Standard
 70
0
 40
1.0
 41
2.5
 42
0.625
 43
3.75
 44
1.25
 45
0.0
 46
0.0
 47
0.0
 48
0.0
 49
2.5
140
2.5
141
2.5
142
0.0
143
0.03937007874
144
1.0
145
0.0
146
1.0
147
0.625
148
0.0
 69
0
 70
0
 71
0
 72
0
 73
0
 74
0
 75
0
 76
0
 77
1
 78
8
 79
3
170
0
171
3
172
1
173
0
174
0
175
0
176
0
177
0
178
0
179
2
271
2
272
2
273
2
274
3
275
0
276
0
277
2
278
44
279
0
280
0
281
0
282
0
283
0
284
8
285
0
286
0
288
0
289
3
290
0
371
-2
372
-2
  0
ENDTAB
  0
TABLE
  2
BLOCK_RECORD
  5
9
330
0
100
AcDbSymbolTable
 70
2
  0
BLOCK_RECORD
  5
17
330
9
100
AcDbSymbolTableRecord
100
AcDbBlockTableRecord
  2
*Model_Space
340
1A
 70
0
280
1
281
0
  0
BLOCK_RECORD
  5
1B
330
9
100
AcDbSymbolTableRecord
100
AcDbBlockTableRecord
  2
*Paper_Space
340
1E
 70
0
280
1
281
0
  0
ENDTAB
  0
ENDSEC
  0
SECTION
  2
BLOCKS
  0
BLOCK
  5
18
330
17
100
AcDbEntity
  8
0
100
AcDbBlockBegin
  2
*Model_Space
 70
0
 10
0.0
 20
0.0
 30
0.0
  3
*Model_Space
  1

  0
ENDBLK
  5
19
330
17
100
AcDbEntity
  8
0
100
AcDbBlockEnd
  0
BLOCK
  5
1C
330
1B
100
AcDbEntity
  8
0
100
AcDbBlockBegin
  2
*Paper_Space
 70
0
 10
0.0
 20
0.0
 30
0.0
  3
*Paper_Space
  1

  0
ENDBLK
  5
1D
330
1B
100
AcDbEntity
  8
0
100
AcDbBlockEnd
  0
ENDSEC
  0
SECTION
  2
ENTITIES
  0
LWPOLYLINE
  5
2F
330
17
100
AcDbEntity
  8
CONTOUR
 62
1
370
35
100
AcDbPolyline
 90
752
 70
0
 10
1606.446490218642
 20
232.737899543379
 10
1604.6000000000001
 20
234.55616438356165
 10
1604.6000000000001
 20
247.2840182648402
 10
1602.753509781358
 20
249.10228310502285
 10
1602.753509781358
 20
258.1936073059361
 10
1600.907019562716
 20
260.0118721461187
 10
1600.907019562716
 20
267.2849315068493
 10
1595.3675489067896
 20
272.73972602739724
 10
1593.5210586881474
 20
272.73972602739724
 10
1591.6745684695052
 20
274.5579908675799
 10
1576.9026467203682
 20
274.5579908675799
 10
1575.0561565017263
 20
276.37625570776254
 10
1573.209666283084
 20
276.37625570776254
 10
1563.9772151898735
 20
285.4675799086758
 10
1563.9772151898735
 20
290.92237442922374
 10
1562.1307249712313
 20
292.7406392694064
 10
1562.1307249712313
 20
301.83196347031964
 10
1560.2842347525893
 20
303.6502283105023
 10
1560.2842347525893
 20
312.74155251141553
 10
1558.4377445339471
 20
314.55981735159816
 10
1558.4377445339471
 20
325.46940639269405
 10
1556.5912543153052
 20
327.28767123287673
 10
1556.5912543153052
 20
336.37899543378995
 10
1554.744764096663
 20
338.19726027397263
 10
1554.744764096663
 20
347.28858447488585
 10
1552.8982738780207
 20
349.10684931506853
 10
1552.8982738780207
 20
360.0164383561644
 10
1551.0517836593788
 20
361.83470319634705
 10
1551.0517836593788
 20
370.92602739726027
 10
1549.2052934407366
 20
372.74429223744295
 10
1549.2052934407366
 20
383.65388127853885
 10
1547.3588032220944
 20
385.47214611872147
 10
1547.3588032220944
 20
394.5634703196347
 10
1545.5123130034524
 20
396.38173515981737
 10
1545.5123130034524
 20
405.4730593607306
 10
1543.6658227848102
 20
407.29132420091327
 10
1543.6658227848102
 20
418.20091324200916
 10
1541.8193325661682
 20
420.0191780821918
 10
1541.8193325661682
 20
429.110502283105
 10
1539.972842347526
 20
430.9287671232877
 10
1539.972842347526
 20
440.0200913242009
 10
1538.1263521288838
 20
441.8383561643836
 10
1538.1263521288838
 20
452.7479452054795
 10
1536.2798619102418
 20
454.5662100456621
 10
1536.2798619102418
 20
463.6575342465754
 10
1534.4333716915996
 20
465.475799086758
 10
1534.4333716915996
 20
476.3853881278539
 10
1532.5868814729574
 20
478.2036529680365
 10
1532.5868814729574
 20
487.2949771689498
 10
1530.7403912543155
 20
489.1132420091324
 10
1530.7403912543155
 20
498.2045662100457
 10
1528.8939010356733
 20
500.0228310502283
 10
1528.8939010356733
 20
510.9324200913242
 10
1527.047410817031
 20
512.7506849315068
 10
1527.047410817031
 20
521.8420091324201
 10
1525.200920598389
 20
523.6602739726028
 10
1525.200920598389
 20
532.751598173516
 10
1523.3544303797469
 20
534.5698630136986
 10
1523.3544303797469
 20
545.4794520547945
 10
1521.507940161105
 20
547.2977168949772
 10
1521.507940161105
 20
556.3890410958904
 10
1519.6614499424627
 20
558.2073059360731
 10
1519.6614499424627
 20
569.116894977169
 10
1517.8149597238205
 20
570.9351598173516
 10
1517.8149597238205
 20
580.0264840182649
 10
1515.9684695051785
 20
581.8447488584475
 10
1515.9684695051785
 20
590.9360730593608
 10
1514.1219792865363
 20
592.7543378995434
 10
1514.1219792865363
 20
601.8456621004566
 10
1512.2754890678941
 20
603.6639269406393
 10
1512.2754890678941
 20
605.482191780822
 10
1508.58250863061
 20
609.1187214611872
 10
1506.736018411968
 20
609.1187214611872
 10
1501.1965477560416
 20
612.7552511415525
 10
1495.6570771001152
 20
612.7552511415525
 10
1493.810586881473
 20
614.5735159817352
 10
1482.7316455696202
 20
614.5735159817352
 10
1480.8851553509783
 20
616.3917808219178
 10
1467.9597238204833
 20
616.3917808219178
 10
1466.1132336018413
 20
618.2100456621005
 10
1460.573762945915
 20
618.2100456621005
 10
1458.7272727272727
 20
620.0283105022831
 10
1456.8807825086308
 20
620.0283105022831
 10
1455.0342922899886
 20
621.8465753424657
 10
1453.1878020713464
 20
621.8465753424657
 10
1451.3413118527044
 20
623.6648401826484
 10
1449.4948216340622
 20
623.6648401826484
 10
1443.9553509781358
 20
629.1196347031963
 10
1442.1088607594938
 20
629.1196347031963
 10
1436.5693901035675
 20
634.5744292237443
 10
1434.7228998849253
 20
634.5744292237443
 10
1431.029919447641
 20
638.2109589041096
 10
1429.1834292289989
 20
638.2109589041096
 10
1423.6439585730725
 20
643.6657534246575
 10
1421.7974683544305
 20
643.6657534246575
 10
1416.2579976985041
 20
649.1205479452055
 10
1414.411507479862
 20
649.1205479452055
 10
1408.8720368239356
 20
654.5753424657535
 10
1407.0255466052936
 20
654.5753424657535
 10
1403.3325661680092
 20
658.2118721461187
 10
1401.4860759493672
 20
658.2118721461187
 10
1395.9466052934408
 20
663.6666666666666
 10
1394.1001150747986
 20
663.6666666666666
 10
1388.5606444188722
 20
669.1214611872147
 10
1386.7141542002303
 20
669.1214611872147
 10
1383.021173762946
 20
672.7579908675799
 10
1381.174683544304
 20
672.7579908675799
 10
1375.6352128883775
 20
678.2127853881278
 10
1373.7887226697353
 20
678.2127853881278
 10
1368.2492520138092
 20
683.6675799086759
 10
1366.402761795167
 20
683.6675799086759
 10
1362.7097813578828
 20
687.3041095890411
 10
1360.8632911392406
 20
687.3041095890411
 10
1355.3238204833142
 20
692.758904109589
 10
1353.4773302646722
 20
692.758904109589
 10
1347.9378596087458
 20
698.2136986301371
 10
1346.0913693901036
 20
698.2136986301371
 10
1335.0124280782509
 20
709.1232876712329
 10
1335.0124280782509
 20
710.9415525114156
 10
1333.165937859609
 20
712.7598173515981
 10
1333.165937859609
 20
716.3963470319635
 10
1331.3194476409667
 20
718.2146118721462
 10
1331.3194476409667
 20
723.6694063926941
 10
1329.4729574223245
 20
725.4876712328768
 10
1329.4729574223245
 20
743.6703196347032
 10
1327.6264672036825
 20
745.4885844748859
 10
1327.6264672036825
 20
750.9433789954338
 10
1325.7799769850403
 20
752.7616438356165
 10
1325.7799769850403
 20
756.3981735159817
 10
1320.240506329114
 20
761.8529680365297
 10
1318.394016110472
 20
761.8529680365297
 10
1312.8545454545456
 20
765.489497716895
 10
1303.622094361335
 20
765.489497716895
 10
1301.7756041426928
 20
767.3077625570777
 10
1294.3896432681242
 20
767.3077625570777
 10
1292.5431530494823
 20
769.1260273972603
 10
1283.3107019562717
 20
769.1260273972603
 10
1281.4642117376295
 20
770.9442922374429
 10
1272.231760644419
 20
770.9442922374429
 10
1270.3852704257768
 20
772.7625570776256
 10
1259.3063291139242
 20
772.7625570776256
 10
1257.459838895282
 20
774.5808219178083
 10
1248.2273878020715
 20
774.5808219178083
 10
1246.3808975834293
 20
776.3990867579909
 10
1235.3019562715765
 20
776.3990867579909
 10
1233.4554660529345
 20
778.2173515981735
 10
1220.5300345224396
 20
778.2173515981735
 10
1218.6835443037976
 20
780.0356164383562
 10
1207.6046029919448
 20
780.0356164383562
 10
1205.7581127733026
 20
781.8538812785388
 10
1192.832681242808
 20
781.8538812785388
 10
1190.9861910241657
 20
783.6721461187215
 10
1178.060759493671
 20
783.6721461187215
 10
1176.2142692750288
 20
785.4904109589041
 10
1161.4423475258918
 20
785.4904109589041
 10
1159.5958573072498
 20
787.3086757990868
 10
1144.823935558113
 20
787.3086757990868
 10
1142.9774453394707
 20
789.1269406392694
 10
1128.2055235903338
 20
789.1269406392694
 10
1126.3590333716916
 20
790.945205479452
 10
1128.2055235903338
 20
792.7634703196347
 10
1366.402761795167
 20
792.7634703196347
 10
1093.1222094361335
 20
792.7634703196347
 10
1091.2757192174915
 20
794.5817351598174
 10
1076.5037974683546
 20
794.5817351598174
 10
1074.6573072497124
 20
792.7634703196347
 10
1072.8108170310702
 20
792.7634703196347
 10
1069.117836593786
 20
789.1269406392694
 10
1067.2713463751438
 20
789.1269406392694
 10
1067.2713463751438
 20
787.3086757990868
 10
1063.5783659378596
 20
783.6721461187215
 10
1063.5783659378596
 20
780.0356164383562
 10
1061.7318757192174
 20
778.2173515981735
 10
1061.7318757192174
 20
703.668493150685
 10
1059.8853855005755
 20
701.8502283105023
 10
1059.8853855005755
 20
680.0310502283105
 10
1058.0388952819333
 20
678.2127853881278
 10
1058.0388952819333
 20
661.8484018264841
 10
1056.1924050632913
 20
660.0301369863014
 10
1056.1924050632913
 20
649.1205479452055
 10
1054.345914844649
 20
647.3022831050229
 10
1054.345914844649
 20
636.3926940639269
 10
1052.4994246260069
 20
634.5744292237443
 10
1052.4994246260069
 20
625.4831050228311
 10
1050.652934407365
 20
623.6648401826484
 10
1050.652934407365
 20
616.3917808219178
 10
1048.8064441887227
 20
614.5735159817352
 10
1048.8064441887227
 20
612.7552511415525
 10
1046.9599539700805
 20
610.9369863013699
 10
1046.9599539700805
 20
609.1187214611872
 10
1039.5739930955122
 20
601.8456621004566
 10
1035.881012658228
 20
601.8456621004566
 10
1034.0345224395858
 20
600.027397260274
 10
1021.1090909090909
 20
600.027397260274
 10
1019.2626006904488
 20
598.2091324200914
 10
984.1792865362486
 20
598.2091324200914
 10
976.7933256616801
 20
605.482191780822
 10
976.7933256616801
 20
607.3004566210046
 10
974.946835443038
 20
609.1187214611872
 10
973.1003452243959
 20
609.1187214611872
 10
971.2538550057538
 20
610.9369863013699
 10
967.5608745684696
 20
610.9369863013699
 10
965.7143843498275
 20
612.7552511415525
 10
962.0214039125432
 20
612.7552511415525
 10
960.1749136939011
 20
610.9369863013699
 10
921.3986191024167
 20
610.9369863013699
 10
919.5521288837745
 20
612.7552511415525
 10
917.7056386651324
 20
612.7552511415525
 10
915.8591484464903
 20
614.5735159817352
 10
914.0126582278482
 20
614.5735159817352
 10
906.6266973532797
 20
621.8465753424657
 10
906.6266973532797
 20
623.6648401826484
 10
902.9337169159954
 20
629.1196347031963
 10
902.9337169159954
 20
634.5744292237443
 10
901.0872266973533
 20
636.3926940639269
 10
901.0872266973533
 20
649.1205479452055
 10
899.2407364787113
 20
650.9388127853881
 10
899.2407364787113
 20
658.2118721461187
 10
897.394246260069
 20
660.0301369863014
 10
897.394246260069
 20
663.6666666666666
 10
895.547756041427
 20
665.4849315068493
 10
895.547756041427
 20
669.1214611872147
 10
893.7012658227849
 20
670.9397260273972
 10
893.7012658227849
 20
672.7579908675799
 10
890.0082853855006
 20
676.3945205479453
 10
890.0082853855006
 20
678.2127853881278
 10
888.1617951668585
 20
680.0310502283105
 10
886.3153049482164
 20
680.0310502283105
 10
882.6223245109321
 20
683.6675799086759
 10
878.9293440736479
 20
683.6675799086759
 10
877.0828538550059
 20
685.4858447488584
 10
869.6968929804374
 20
685.4858447488584
 10
867.8504027617952
 20
683.6675799086759
 10
819.8416570771002
 20
683.6675799086759
 10
817.995166858458
 20
681.8493150684932
 10
788.4513233601841
 20
681.8493150684932
 10
786.604833141542
 20
683.6675799086759
 10
720.1311852704258
 20
683.6675799086759
 10
718.2846950517837
 20
681.8493150684932
 10
714.5917146144994
 20
681.8493150684932
 10
712.7452243958573
 20
680.0310502283105
 10
710.8987341772153
 20
680.0310502283105
 10
705.3592635212889
 20
674.5762557077626
 10
705.3592635212889
 20
672.7579908675799
 10
703.5127733026468
 20
670.9397260273972
 10
703.5127733026468
 20
665.4849315068493
 10
701.6662830840046
 20
663.6666666666666
 10
701.6662830840046
 20
656.3936073059361
 10
699.8197928653625
 20
654.5753424657535
 10
699.8197928653625
 20
645.4840182648402
 10
697.9733026467204
 20
643.6657534246575
 10
697.9733026467204
 20
632.7561643835617
 10
696.1268124280783
 20
630.937899543379
 10
696.1268124280783
 20
621.8465753424657
 10
694.2803222094361
 20
620.0283105022831
 10
694.2803222094361
 20
618.2100456621005
 10
692.433831990794
 20
616.3917808219178
 10
692.433831990794
 20
614.5735159817352
 10
686.8943613348677
 20
609.1187214611872
 10
685.0478711162256
 20
609.1187214611872
 10
683.2013808975835
 20
607.3004566210046
 10
679.5084004602992
 20
607.3004566210046
 10
677.6619102416571
 20
605.482191780822
 10
616.7277330264673
 20
605.482191780822
 10
614.8812428078252
 20
603.6639269406393
 10
611.1882623705409
 20
603.6639269406393
 10
607.4952819332567
 20
600.027397260274
 10
607.4952819332567
 20
598.2091324200914
 10
600.1093210586882
 20
590.9360730593608
 10
561.3330264672037
 20
590.9360730593608
 10
559.4865362485616
 20
592.7543378995434
 10
553.9470655926352
 20
592.7543378995434
 10
552.1005753739931
 20
594.572602739726
 10
548.4075949367088
 20
594.572602739726
 10
537.3286536248562
 20
605.482191780822
 10
537.3286536248562
 20
607.3004566210046
 10
535.4821634062141
 20
609.1187214611872
 10
535.4821634062141
 20
616.3917808219178
 10
533.6356731875719
 20
618.2100456621005
 10
533.6356731875719
 20
634.5744292237443
 10
531.7891829689298
 20
636.3926940639269
 10
531.7891829689298
 20
652.7570776255708
 10
529.9426927502877
 20
654.5753424657535
 10
529.9426927502877
 20
670.9397260273972
 10
528.0962025316456
 20
672.7579908675799
 10
528.0962025316456
 20
689.1223744292238
 10
526.2497123130034
 20
690.9406392694065
 10
526.2497123130034
 20
705.4867579908675
 10
524.4032220943614
 20
707.3050228310502
 10
524.4032220943614
 20
723.6694063926941
 10
522.5567318757193
 20
725.4876712328768
 10
522.5567318757193
 20
741.8520547945205
 10
520.7102416570772
 20
743.6703196347032
 10
520.7102416570772
 20
760.0347031963471
 10
518.863751438435
 20
761.8529680365297
 10
518.863751438435
 20
770.9442922374429
 10
517.0172612197929
 20
772.7625570776256
 10
517.0172612197929
 20
774.5808219178083
 10
511.47779056386656
 20
780.0356164383562
 10
509.6313003452244
 20
780.0356164383562
 10
507.78481012658233
 20
781.8538812785388
 10
480.08745684695054
 20
781.8538812785388
 10
478.24096662830846
 20
780.0356164383562
 10
463.46904487917146
 20
780.0356164383562
 10
461.6225546605294
 20
778.2173515981735
 10
446.85063291139244
 20
778.2173515981735
 10
445.0041426927503
 20
776.3990867579909
 10
432.0787111622555
 20
776.3990867579909
 10
430.23222094361336
 20
774.5808219178083
 10
419.15327963176065
 20
774.5808219178083
 10
417.30678941311857
 20
772.7625570776256
 10
406.22784810126586
 20
772.7625570776256
 10
404.3813578826237
 20
770.9442922374429
 10
393.302416570771
 20
770.9442922374429
 10
391.4559263521289
 20
769.1260273972603
 10
382.2234752589183
 20
769.1260273972603
 10
380.3769850402762
 20
767.3077625570777
 10
371.1445339470656
 20
767.3077625570777
 10
369.2980437284235
 20
765.489497716895
 10
360.0655926352129
 20
765.489497716895
 10
358.2191024165708
 20
763.6712328767123
 10
348.9866513233602
 20
763.6712328767123
 10
347.14016110471806
 20
761.8529680365297
 10
339.7542002301496
 20
761.8529680365297
 10
337.9077100115075
 20
760.0347031963471
 10
328.6752589182969
 20
760.0347031963471
 10
326.8287686996548
 20
758.2164383561644
 10
319.44280782508633
 20
758.2164383561644
 10
317.5963176064442
 20
756.3981735159817
 10
310.2103567318757
 20
756.3981735159817
 10
308.36386651323363
 20
754.5799086757991
 10
300.97790563866516
 20
754.5799086757991
 10
299.131415420023
 20
752.7616438356165
 10
291.74545454545455
 20
752.7616438356165
 10
289.89896432681246
 20
750.9433789954338
 10
282.513003452244
 20
750.9433789954338
 10
280.66651323360185
 20
749.1251141552511
 10
275.1270425776755
 20
749.1251141552511
 10
273.2805523590334
 20
747.3068493150685
 10
265.8945914844649
 20
747.3068493150685
 10
264.0481012658228
 20
745.4885844748859
 10
262.2016110471807
 20
745.4885844748859
 10
260.3551208285386
 20
743.6703196347032
 10
258.50863060989644
 20
743.6703196347032
 10
256.66214039125435
 20
741.8520547945205
 10
256.66214039125435
 20
740.0337899543379
 10
252.9691599539701
 20
734.5789954337899
 10
252.9691599539701
 20
727.3059360730593
 10
251.12266973532797
 20
725.4876712328768
 10
251.12266973532797
 20
701.8502283105023
 10
249.27617951668586
 20
700.0319634703196
 10
249.27617951668586
 20
698.2136986301371
 10
247.42968929804374
 20
696.3954337899544
 10
247.42968929804374
 20
694.5771689497717
 10
243.7367088607595
 20
690.9406392694065
 10
241.8902186421174
 20
690.9406392694065
 10
234.50425776754892
 20
683.6675799086759
 10
232.6577675489068
 20
683.6675799086759
 10
225.27180667433834
 20
676.3945205479453
 10
223.42531645569622
 20
676.3945205479453
 10
216.03935558112775
 20
669.1214611872147
 10
214.19286536248563
 20
669.1214611872147
 10
206.80690448791717
 20
661.8484018264841
 10
204.96041426927505
 20
661.8484018264841
 10
199.4209436133487
 20
656.3936073059361
 10
197.57445339470658
 20
656.3936073059361
 10
190.1884925201381
 20
649.1205479452055
 10
188.342002301496
 20
649.1205479452055
 10
180.95604142692753
 20
641.847488584475
 10
179.1095512082854
 20
641.847488584475
 10
171.7235903337169
 20
634.5744292237443
 10
169.8771001150748
 20
634.5744292237443
 10
162.49113924050633
 20
627.3013698630137
 10
160.6446490218642
 20
627.3013698630137
 10
153.25868814729574
 20
620.0283105022831
 10
151.41219792865363
 20
620.0283105022831
 10
144.02623705408516
 20
612.7552511415525
 10
142.17974683544304
 20
612.7552511415525
 10
136.6402761795167
 20
607.3004566210046
 10
134.79378596087457
 20
607.3004566210046
 10
129.25431530494822
 20
603.6639269406393
 10
125.56133486766399
 20
603.6639269406393
 10
123.71484464902187
 20
601.8456621004566
 10
118.17537399309552
 20
601.8456621004566
 10
116.3288837744534
 20
600.027397260274
 10
107.09643268124282
 20
600.027397260274
 10
105.2499424626007
 20
598.2091324200914
 10
79.39907940161105
 20
598.2091324200914
 10
75.70609896432681
 20
594.572602739726
 10
73.8596087456847
 20
594.572602739726
 10
70.16662830840046
 20
590.9360730593608
 10
70.16662830840046
 20
589.1178082191781
 10
68.32013808975834
 20
587.2995433789954
 10
68.32013808975834
 20
583.6630136986302
 10
66.47364787111623
 20
581.8447488584475
 10
66.47364787111623
 20
576.3899543378996
 10
64.62715765247411
 20
574.5716894977169
 10
64.62715765247411
 20
569.116894977169
 10
62.780667433831994
 20
567.2986301369863
 10
62.780667433831994
 20
560.0255707762557
 10
60.93417721518988
 20
558.2073059360731
 10
60.93417721518988
 20
552.7525114155251
 10
59.08768699654776
 20
550.9342465753425
 10
59.08768699654776
 20
543.6611872146119
 10
57.24119677790564
 20
541.8429223744292
 10
57.24119677790564
 20
536.3881278538813
 10
55.394706559263525
 20
534.5698630136986
 10
55.394706559263525
 20
527.296803652968
 10
53.54821634062141
 20
525.4785388127854
 10
53.54821634062141
 20
520.0237442922374
 10
51.70172612197929
 20
518.2054794520548
 10
51.70172612197929
 20
510.9324200913242
 10
49.855235903337174
 20
509.11415525114154
 10
49.855235903337174
 20
501.841095890411
 10
48.00874568469506
 20
500.0228310502283
 10
48.00874568469506
 20
492.7497716894977
 10
46.16225546605294
 20
490.9315068493151
 10
46.16225546605294
 20
483.6584474885845
 10
44.31576524741082
 20
481.8401826484018
 10
44.31576524741082
 20
474.5671232876712
 10
42.4692750287687
 20
472.7488584474886
 10
42.4692750287687
 20
465.475799086758
 10
40.62278481012658
 20
463.6575342465754
 10
40.62278481012658
 20
456.3844748858448
 10
38.776294591484465
 20
454.5662100456621
 10
38.776294591484465
 20
447.2931506849315
 10
36.92980437284235
 20
445.4748858447489
 10
36.92980437284235
 20
438.2018264840183
 10
35.08331415420023
 20
436.3835616438356
 10
35.08331415420023
 20
427.2922374429224
 10
33.236823935558114
 20
425.47397260273976
 10
33.236823935558114
 20
418.20091324200916
 10
31.390333716915997
 20
416.3826484018265
 10
31.390333716915997
 20
407.29132420091327
 10
29.54384349827388
 20
405.4730593607306
 10
29.54384349827388
 20
398.2
 10
27.697353279631763
 20
396.38173515981737
 10
27.697353279631763
 20
387.29041095890415
 10
25.850863060989646
 20
385.47214611872147
 10
25.850863060989646
 20
376.38082191780825
 10
24.00437284234753
 20
374.56255707762557
 10
24.00437284234753
 20
365.47123287671235
 10
22.15788262370541
 20
363.65296803652967
 10
22.15788262370541
 20
354.56164383561645
 10
20.31139240506329
 20
352.7433789954338
 10
20.31139240506329
 20
343.65205479452055
 10
18.464902186421174
 20
341.83378995433793
 10
18.464902186421174
 20
330.92420091324203
 10
16.618411967779057
 20
329.10593607305935
 10
16.618411967779057
 20
320.01461187214613
 10
14.77192174913694
 20
318.19634703196346
 10
14.77192174913694
 20
307.2867579908676
 10
12.925431530494823
 20
305.46849315068494
 10
12.925431530494823
 20
294.55890410958904
 10
11.078941311852706
 20
292.7406392694064
 10
11.078941311852706
 20
281.8310502283105
 10
9.232451093210587
 20
280.01278538812784
 10
9.232451093210587
 20
267.2849315068493
 10
7.38596087456847
 20
265.4666666666667
 10
7.38596087456847
 20
254.55707762557077
 10
5.539470655926353
 20
252.73881278538812
 10
5.539470655926353
 20
240.0109589041096
 10
3.692980437284235
 20
238.19269406392695
 10
3.692980437284235
 20
225.4648401826484
 10
1.8464902186421175
 20
223.64657534246575
 10
1.8464902186421175
 20
194.55433789954338
 10
1.8464902186421175
 20
205.46392694063928
 10
3.692980437284235
 20
207.28219178082193
 10
11.078941311852706
 20
200.00913242009133
 10
12.925431530494823
 20
200.00913242009133
 10
18.464902186421174
 20
196.37260273972603
 10
24.00437284234753
 20
196.37260273972603
 10
25.850863060989646
 20
194.55433789954338
 10
31.390333716915997
 20
194.55433789954338
 10
33.236823935558114
 20
192.73607305936073
 10
38.776294591484465
 20
192.73607305936073
 10
40.62278481012658
 20
190.91780821917808
 10
49.855235903337174
 20
190.91780821917808
 10
51.70172612197929
 20
192.73607305936073
 10
55.394706559263525
 20
192.73607305936073
 10
57.24119677790564
 20
194.55433789954338
 10
59.08768699654776
 20
194.55433789954338
 10
60.93417721518988
 20
196.37260273972603
 10
62.780667433831994
 20
196.37260273972603
 10
64.62715765247411
 20
198.19086757990868
 10
66.47364787111623
 20
198.19086757990868
 10
68.32013808975834
 20
200.00913242009133
 10
70.16662830840046
 20
200.00913242009133
 10
72.01311852704258
 20
201.82739726027398
 10
73.8596087456847
 20
201.82739726027398
 10
75.70609896432681
 20
203.64566210045663
 10
77.55258918296893
 20
203.64566210045663
 10
79.39907940161105
 20
205.46392694063928
 10
81.24556962025316
 20
205.46392694063928
 10
83.09205983889528
 20
207.28219178082193
 10
84.9385500575374
 20
207.28219178082193
 10
86.78504027617952
 20
209.10045662100458
 10
88.63153049482165
 20
209.10045662100458
 10
94.171001150748
 20
212.73698630136988
 10
97.86398158803223
 20
212.73698630136988
 10
99.71047180667435
 20
214.5552511415525
 10
103.40345224395858
 20
214.5552511415525
 10
105.2499424626007
 20
216.37351598173515
 10
110.78941311852705
 20
216.37351598173515
 10
112.63590333716917
 20
218.1917808219178
 10
118.17537399309552
 20
218.1917808219178
 10
120.02186421173764
 20
220.01004566210045
 10
136.6402761795167
 20
220.01004566210045
 10
138.4867663981588
 20
221.8283105022831
 10
149.5657077100115
 20
221.8283105022831
 10
151.41219792865363
 20
220.01004566210045
 10
214.19286536248563
 20
220.01004566210045
 10
216.03935558112775
 20
218.1917808219178
 10
236.35074798619104
 20
218.1917808219178
 10
238.19723820483316
 20
216.37351598173515
 10
249.27617951668586
 20
216.37351598173515
 10
251.12266973532797
 20
214.5552511415525
 10
260.3551208285386
 20
214.5552511415525
 10
262.2016110471807
 20
212.73698630136988
 10
269.58757192174915
 20
212.73698630136988
 10
271.4340621403913
 20
210.91872146118723
 10
278.82002301495976
 20
210.91872146118723
 10
280.66651323360185
 20
209.10045662100458
 10
286.2059838895282
 20
209.10045662100458
 10
288.0524741081703
 20
207.28219178082193
 10
293.5919447640967
 20
207.28219178082193
 10
295.4384349827388
 20
205.46392694063928
 10
300.97790563866516
 20
205.46392694063928
 10
302.82439585730725
 20
203.64566210045663
 10
306.5173762945915
 20
203.64566210045663
 10
308.36386651323363
 20
201.82739726027398
 10
312.05684695051787
 20
201.82739726027398
 10
313.90333716915995
 20
200.00913242009133
 10
315.7498273878021
 20
200.00913242009133
 10
317.5963176064442
 20
198.19086757990868
 10
319.44280782508633
 20
198.19086757990868
 10
321.2892980437284
 20
196.37260273972603
 10
323.13578826237057
 20
196.37260273972603
 10
324.98227848101266
 20
194.55433789954338
 10
326.8287686996548
 20
194.55433789954338
 10
332.3682393555811
 20
189.09954337899543
 10
334.21472957422327
 20
189.09954337899543
 10
352.67963176064444
 20
170.91689497716897
 10
352.67963176064444
 20
169.09863013698632
 10
358.2191024165708
 20
163.64383561643837
 10
358.2191024165708
 20
160.00730593607307
 10
360.0655926352129
 20
158.18904109589042
 10
360.0655926352129
 20
154.55251141552512
 10
361.91208285385505
 20
152.73424657534247
 10
361.91208285385505
 20
149.09771689497717
 10
363.75857307249714
 20
147.27945205479452
 10
363.75857307249714
 20
141.82465753424657
 10
365.6050632911393
 20
140.00639269406392
 10
365.6050632911393
 20
134.551598173516
 10
367.4515535097814
 20
132.73333333333335
 10
367.4515535097814
 20
127.27853881278538
 10
369.2980437284235
 20
125.46027397260275
 10
369.2980437284235
 20
118.18721461187215
 10
371.1445339470656
 20
116.3689497716895
 10
371.1445339470656
 20
110.91415525114155
 10
372.99102416570776
 20
109.0958904109589
 10
372.99102416570776
 20
101.82283105022832
 10
374.83751438434984
 20
100.00456621004567
 10
374.83751438434984
 20
92.73150684931507
 10
376.684004602992
 20
90.91324200913242
 10
376.684004602992
 20
83.64018264840183
 10
378.5304948216341
 20
81.82191780821918
 10
378.5304948216341
 20
76.36712328767123
 10
380.3769850402762
 20
74.54885844748858
 10
380.3769850402762
 20
67.275799086758
 10
382.2234752589183
 20
65.45753424657535
 10
382.2234752589183
 20
58.18447488584475
 10
384.06996547756046
 20
56.3662100456621
 10
384.06996547756046
 20
49.09315068493151
 10
385.91645569620255
 20
47.27488584474886
 10
385.91645569620255
 20
38.18356164383562
 10
387.7629459148447
 20
36.36529680365297
 10
387.7629459148447
 20
29.092237442922375
 10
389.6094361334868
 20
27.273972602739725
 10
389.6094361334868
 20
20.000913242009133
 10
391.4559263521289
 20
18.182648401826484
 10
391.4559263521289
 20
10.909589041095892
 10
393.302416570771
 20
9.091324200913242
 10
393.302416570771
 20
7.273059360730594
 10
400.6883774453395
 20
0.0
 10
402.53486766398163
 20
0.0
 10
404.3813578826237
 20
-1.8182648401826484
 10
461.6225546605294
 20
-1.8182648401826484
 10
463.46904487917146
 20
0.0
 10
483.7804372842348
 20
0.0
 10
491.16639815880325
 20
7.273059360730594
 10
491.16639815880325
 20
9.091324200913242
 10
496.7058688147296
 20
14.546118721461188
 10
498.5523590333717
 20
14.546118721461188
 10
500.39884925201386
 20
16.364383561643837
 10
502.24533947065595
 20
16.364383561643837
 10
504.0918296892981
 20
18.182648401826484
 10
505.9383199079402
 20
18.182648401826484
 10
511.47779056386656
 20
21.819178082191783
 10
515.1707710011508
 20
21.819178082191783
 10
520.7102416570772
 20
25.45570776255708
 10
557.6400460299195
 20
25.45570776255708
 10
559.4865362485616
 20
27.273972602739725
 10
696.1268124280783
 20
27.273972602739725
 10
697.9733026467204
 20
29.092237442922375
 10
834.6135788262371
 20
29.092237442922375
 10
836.4600690448792
 20
30.910502283105025
 10
973.1003452243959
 20
30.910502283105025
 10
974.946835443038
 20
32.728767123287675
 10
1094.9686996547757
 20
32.728767123287675
 10
1098.66168009206
 20
29.092237442922375
 10
1100.508170310702
 20
29.092237442922375
 10
1102.354660529344
 20
27.273972602739725
 10
1109.7406214039127
 20
27.273972602739725
 10
1111.5871116225546
 20
25.45570776255708
 10
1113.4336018411968
 20
25.45570776255708
 10
1118.9730724971232
 20
20.000913242009133
 10
1118.9730724971232
 20
18.182648401826484
 10
1122.6660529344074
 20
14.546118721461188
 10
1122.6660529344074
 20
12.72785388127854
 10
1124.5125431530496
 20
12.72785388127854
 10
1128.2055235903338
 20
9.091324200913242
 10
1202.0651323360185
 20
9.091324200913242
 10
1192.832681242808
 20
9.091324200913242
 10
1190.9861910241657
 20
10.909589041095892
 10
1192.832681242808
 20
12.72785388127854
 10
1194.67917146145
 20
12.72785388127854
 10
1200.2186421173765
 20
18.182648401826484
 10
1200.2186421173765
 20
21.819178082191783
 10
1202.0651323360185
 20
23.63744292237443
 10
1202.0651323360185
 20
32.728767123287675
 10
1203.9116225546607
 20
34.54703196347032
 10
1203.9116225546607
 20
40.00182648401827
 10
1205.7581127733026
 20
41.82009132420092
 10
1205.7581127733026
 20
45.45662100456621
 10
1207.6046029919448
 20
47.27488584474886
 10
1207.6046029919448
 20
49.09315068493151
 10
1209.451093210587
 20
50.91141552511416
 10
1209.451093210587
 20
52.72968036529681
 10
1211.297583429229
 20
54.54794520547945
 10
1211.297583429229
 20
56.3662100456621
 10
1238.994936708861
 20
83.64018264840183
 10
1240.8414269275029
 20
83.64018264840183
 10
1248.2273878020715
 20
90.91324200913242
 10
1250.0738780207134
 20
90.91324200913242
 10
1253.7668584579978
 20
94.54977168949772
 10
1255.6133486766398
 20
94.54977168949772
 10
1259.3063291139242
 20
98.18630136986302
 10
1261.1528193325662
 20
98.18630136986302
 10
1262.9993095512084
 20
100.00456621004567
 10
1264.8457997698504
 20
100.00456621004567
 10
1268.5387802071348
 20
103.64109589041097
 10
1270.3852704257768
 20
103.64109589041097
 10
1272.231760644419
 20
105.45936073059362
 10
1274.0782508630612
 20
105.45936073059362
 10
1275.9247410817031
 20
107.27762557077625
 10
1277.7712313003453
 20
107.27762557077625
 10
1279.6177215189873
 20
109.0958904109589
 10
1281.4642117376295
 20
109.0958904109589
 10
1283.3107019562717
 20
110.91415525114155
 10
1285.1571921749137
 20
110.91415525114155
 10
1287.003682393556
 20
112.7324200913242
 10
1288.850172612198
 20
112.7324200913242
 10
1290.69666283084
 20
114.55068493150685
 10
1292.5431530494823
 20
114.55068493150685
 10
1294.3896432681242
 20
116.3689497716895
 10
1296.2361334867664
 20
116.3689497716895
 10
1301.7756041426928
 20
120.0054794520548
 10
1305.468584579977
 20
120.0054794520548
 10
1307.3150747986192
 20
121.82374429223745
 10
1309.1615650172614
 20
121.82374429223745
 10
1314.7010356731876
 20
125.46027397260275
 10
1318.394016110472
 20
125.46027397260275
 10
1320.240506329114
 20
127.27853881278538
 10
1322.0869965477561
 20
127.27853881278538
 10
1327.6264672036825
 20
130.9150684931507
 10
1331.3194476409667
 20
130.9150684931507
 10
1333.165937859609
 20
132.73333333333335
 10
1335.0124280782509
 20
132.73333333333335
 10
1340.5518987341773
 20
136.36986301369862
 10
1344.2448791714614
 20
136.36986301369862
 10
1346.0913693901036
 20
138.18812785388127
 10
1347.9378596087458
 20
138.18812785388127
 10
1353.4773302646722
 20
141.82465753424657
 10
1357.1703107019564
 20
141.82465753424657
 10
1359.0168009205984
 20
143.64292237442922
 10
1360.8632911392406
 20
143.64292237442922
 10
1366.402761795167
 20
147.27945205479452
 10
1370.0957422324511
 20
147.27945205479452
 10
1371.9422324510933
 20
149.09771689497717
 10
1373.7887226697353
 20
149.09771689497717
 10
1375.6352128883775
 20
150.91598173515982
 10
1379.3281933256617
 20
150.91598173515982
 10
1384.867663981588
 20
154.55251141552512
 10
1388.5606444188722
 20
154.55251141552512
 10
1390.4071346375144
 20
156.37077625570777
 10
1394.1001150747986
 20
156.37077625570777
 10
1399.639585730725
 20
160.00730593607307
 10
1403.3325661680092
 20
160.00730593607307
 10
1405.1790563866514
 20
161.82557077625572
 10
1408.8720368239356
 20
161.82557077625572
 10
1410.7185270425778
 20
163.64383561643837
 10
1414.411507479862
 20
163.64383561643837
 10
1416.2579976985041
 20
165.46210045662102
 10
1419.9509781357883
 20
165.46210045662102
 10
1421.7974683544305
 20
167.28036529680367
 10
1425.4904487917147
 20
167.28036529680367
 10
1427.336939010357
 20
169.09863013698632
 10
1431.029919447641
 20
169.09863013698632
 10
1432.8764096662833
 20
170.91689497716897
 10
1438.4158803222094
 20
170.91689497716897
 10
1440.2623705408516
 20
172.73515981735162
 10
1443.9553509781358
 20
172.73515981735162
 10
1445.801841196778
 20
174.55342465753426
 10
1451.3413118527044
 20
174.55342465753426
 10
1453.1878020713464
 20
176.3716894977169
 10
1456.8807825086308
 20
176.3716894977169
 10
1458.7272727272727
 20
178.18995433789954
 10
1464.2667433831991
 20
178.18995433789954
 10
1466.1132336018413
 20
180.0082191780822
 10
1471.6527042577677
 20
180.0082191780822
 10
1473.4991944764097
 20
181.82648401826484
 10
1479.038665132336
 20
181.82648401826484
 10
1480.8851553509783
 20
183.64474885844749
 10
1488.2711162255466
 20
183.64474885844749
 10
1490.1176064441888
 20
185.46301369863014
 10
1497.5035673187572
 20
185.46301369863014
 10
1499.3500575373994
 20
187.28127853881278
 10
1506.736018411968
 20
187.28127853881278
 10
1508.58250863061
 20
189.09954337899543
 10
1515.9684695051785
 20
189.09954337899543
 10
1517.8149597238205
 20
190.91780821917808
 10
1527.047410817031
 20
190.91780821917808
 10
1528.8939010356733
 20
192.73607305936073
 10
1539.972842347526
 20
192.73607305936073
 10
1541.8193325661682
 20
194.55433789954338
 10
1554.744764096663
 20
194.55433789954338
 10
1556.5912543153052
 20
196.37260273972603
 10
1569.5166858457999
 20
196.37260273972603
 10
1571.363176064442
 20
198.19086757990868
 10
1582.4421173762946
 20
198.19086757990868
 10
1584.2886075949368
 20
200.00913242009133
 10
1591.6745684695052
 20
200.00913242009133
 10
1593.5210586881474
 20
201.82739726027398
 10
1597.2140391254316
 20
201.82739726027398
 10
1600.907019562716
 20
205.46392694063928
 10
1602.753509781358
 20
205.46392694063928
 10
1602.753509781358
 20
207.28219178082193
 10
1604.6000000000001
 20
209.10045662100458
 10
1606.446490218642
 20
207.28219178082193
 10
1606.446490218642
 20
172.73515981735162
 10
1606.446490218642
 20
232.737899543379
  0
LWPOLYLINE
  5
30
330
17
100
AcDbEntity
  8
BOUNDING_BOX
  6
DASHED
 62
4
370
25
100
AcDbPolyline
 90
5
 70
0
 10
1.8464902186421175
 20
-1.8182648401826484
 10
1606.446490218642
 20
-1.8182648401826484
 10
1606.446490218642
 20
794.5817351598174
 10
1.8464902186421175
 20
794.5817351598174
 10
1.8464902186421175
 20
-1.8182648401826484
  0
TEXT
  5
31
330
17
100
AcDbEntity
  8
TEXT
 62
7
100
AcDbText
 10
1.8464902186421175
 20
-31.81826484018265
 30
0.0
 40
10.0
  1
Шаблон: traktor2.pngРазмеры: 1604.6 x 796.4 ммТочек: 751Масштаб: X=1.846 Y=1.818 мм/пикс
100
AcDbText
  0
ENDSEC
  0
SECTION
  2
OBJECTS
  0
DICTIONARY
  5
A
330
0
100
AcDbDictionary
280
0
281
1
  3
ACAD_COLOR
350
B
  3
ACAD_GROUP
350
C
  3
ACAD_LAYOUT
350
D
  3
ACAD_MATERIAL
350
E
  3
ACAD_MLEADERSTYLE
350
F
  3
ACAD_MLINESTYLE
350
10
  3
ACAD_PLOTSETTINGS
350
11
  3
ACAD_PLOTSTYLENAME
350
12
  3
ACAD_SCALELIST
350
14
  3
ACAD_TABLESTYLE
350
15
  3
ACAD_VISUALSTYLE
350
16
  3
EZDXF_META
350
2D
  0
DICTIONARY
  5
B
330
A
100
AcDbDictionary
280
0
281
1
  0
DICTIONARY
  5
C
330
A
100
AcDbDictionary
280
0
281
1
  0
DICTIONARY
  5
D
330
A
100
AcDbDictionary
280
0
281
1
  3
Model
350
1A
  3
Layout1
350
1E
  0
DICTIONARY
  5
E
330
A
100
AcDbDictionary
280
0
281
1
  3
ByBlock
350
1F
  3
ByLayer
350
20
  3
Global
350
21
  0
DICTIONARY
  5
F
330
A
100
AcDbDictionary
280
0
281
1
  3
Standard
350
2C
  0
DICTIONARY
  5
10
330
A
100
AcDbDictionary
280
0
281
1
  3
Standard
350
22
  0
DICTIONARY
  5
11
330
A
100
AcDbDictionary
280
0
281
1
  0
ACDBDICTIONARYWDFLT
  5
12
330
A
100
AcDbDictionary
280
0
281
1
  3
Normal
350
13
100
AcDbDictionaryWithDefault
340
13
  0
ACDBPLACEHOLDER
  5
13
330
12
  0
DICTIONARY
  5
14
330
A
100
AcDbDictionary
280
0
281
1
  0
DICTIONARY
  5
15
330
A
100
AcDbDictionary
280
0
281
1
  0
DICTIONARY
  5
16
330
A
100
AcDbDictionary
280
0
281
1
  0
LAYOUT
  5
1A
330
D
100
AcDbPlotSettings
  1

  4
A3
  6

 40
7.5
 41
20.0
 42
7.5
 43
20.0
 44
420.0
 45
297.0
 46
0.0
 47
0.0
 48
0.0
 49
0.0
140
0.0
141
0.0
142
1.0
143
1.0
 70
1024
 72
1
 73
0
 74
5
  7

 75
16
 76
0
 77
2
 78
300
147
1.0
148
0.0
149
0.0
100
AcDbLayout
  1
Model
 70
1
 71
0
 10
0.0
 20
0.0
 11
420.0
 21
297.0
 12
0.0
 22
0.0
 32
0.0
 14
1e+20
 24
1e+20
 34
1e+20
 15
-1e+20
 25
-1e+20
 35
-1e+20
146
0.0
 13
0.0
 23
0.0
 33
0.0
 16
1.0
 26
0.0
 36
0.0
 17
0.0
 27
1.0
 37
0.0
 76
1
330
17
  0
LAYOUT
  5
1E
330
D
100
AcDbPlotSettings
  1

  4
A3
  6

 40
7.5
 41
20.0
 42
7.5
 43
20.0
 44
420.0
 45
297.0
 46
0.0
 47
0.0
 48
0.0
 49
0.0
140
0.0
141
0.0
142
1.0
143
1.0
 70
0
 72
1
 73
0
 74
5
  7

 75
16
 76
0
 77
2
 78
300
147
1.0
148
0.0
149
0.0
100
AcDbLayout
  1
Layout1
 70
1
 71
1
 10
0.0
 20
0.0
 11
420.0
 21
297.0
 12
0.0
 22
0.0
 32
0.0
 14
1e+20
 24
1e+20
 34
1e+20
 15
-1e+20
 25
-1e+20
 35
-1e+20
146
0.0
 13
0.0
 23
0.0
 33
0.0
 16
1.0
 26
0.0
 36
0.0
 17
0.0
 27
1.0
 37
0.0
 76
1
330
1B
  0
MATERIAL
  5
1F
102
{ACAD_REACTORS
330
E
102
}
330
E
100
AcDbMaterial
  1
ByBlock
  2

 70
0
 40
1.0
 71
1
 41
1.0
 91
-1023410177
 42
1.0
 72
1
  3

 73
1
 74
1
 75
1
 44
0.5
 73
0
 45
1.0
 46
1.0
 77
1
  4

 78
1
 79
1
170
1
 48
1.0
171
1
  6

172
1
173
1
174
1
140
1.0
141
1.0
175
1
  7

176
1
177
1
178
1
143
1.0
179
1
  8

270
1
271
1
272
1
145
1.0
146
1.0
273
1
  9

274
1
275
1
276
1
 42
1.0
 72
1
  3

 73
1
 74
1
 75
1
 94
63
  0
MATERIAL
  5
20
102
{ACAD_REACTORS
330
E
102
}
330
E
100
AcDbMaterial
  1
ByLayer
  2

 70
0
 40
1.0
 71
1
 41
1.0
 91
-1023410177
 42
1.0
 72
1
  3

 73
1
 74
1
 75
1
 44
0.5
 73
0
 45
1.0
 46
1.0
 77
1
  4

 78
1
 79
1
170
1
 48
1.0
171
1
  6

172
1
173
1
174
1
140
1.0
141
1.0
175
1
  7

176
1
177
1
178
1
143
1.0
179
1
  8

270
1
271
1
272
1
145
1.0
146
1.0
273
1
  9

274
1
275
1
276
1
 42
1.0
 72
1
  3

 73
1
 74
1
 75
1
 94
63
  0
MATERIAL
  5
21
102
{ACAD_REACTORS
330
E
102
}
330
E
100
AcDbMaterial
  1
Global
  2

 70
0
 40
1.0
 71
1
 41
1.0
 91
-1023410177
 42
1.0
 72
1
  3

 73
1
 74
1
 75
1
 44
0.5
 73
0
 45
1.0
 46
1.0
 77
1
  4

 78
1
 79
1
170
1
 48
1.0
171
1
  6

172
1
173
1
174
1
140
1.0
141
1.0
175
1
  7

176
1
177
1
178
1
143
1.0
179
1
  8

270
1
271
1
272
1
145
1.0
146
1.0
273
1
  9

274
1
275
1
276
1
 42
1.0
 72
1
  3

 73
1
 74
1
 75
1
 94
63
  0
MLINESTYLE
  5
22
102
{ACAD_REACTORS
330
10
102
}
330
10
100
AcDbMlineStyle
  2
Standard
 70
0
  3

 62
256
 51
90.0
 52
90.0
 71
2
 49
0.5
 62
256
  6
BYLAYER
 49
-0.5
 62
256
  6
BYLAYER
  0
MLEADERSTYLE
  5
2C
102
{ACAD_REACTORS
330
F
102
}
330
F
100
AcDbMLeaderStyle
179
2
170
2
171
1
172
0
 90
2
 40
0.0
 41
0.0
173
1
 91
-1056964608
 92
-2
290
1
 42
2.0
291
1
 43
8.0
  3
Standard
 44
4.0
300

342
29
174
1
175
1
176
0
178
1
 93
-1056964608
 45
4.0
292
0
297
0
 46
4.0
 94
-1056964608
 47
1.0
 49
1.0
140
1.0
294
1
141
0.0
177
0
142
1.0
295
0
296
0
143
3.75
271
0
272
9
273
9
  0
DICTIONARY
  5
2D
330
A
100
AcDbDictionary
280
1
281
1
  3
CREATED_BY_EZDXF
350
2E
  3
WRITTEN_BY_EZDXF
350
34
  0
DICTIONARYVAR
  5
2E
330
2D
100
DictionaryVariables
280
0
  1
1.3.5 @ 2026-05-22T13:25:11.324435+00:00
  0
DICTIONARYVAR
  5
34
330
2D
100
DictionaryVariables
280
0
  1
1.3.5 @ 2026-05-22T13:25:11.351149+00:00
  0
ENDSEC
  0
EOF
